<?xml version="1.0" encoding="UTF-8" standalone="no"?>
<svg width="63px" height="36px" viewBox="0 0 63 36" version="1.1" xmlns="http://www.w3.org/2000/svg" xmlns:xlink="http://www.w3.org/1999/xlink">
    <!-- Generator: Sketch 39.1 (31720) - http://www.bohemiancoding.com/sketch -->
    <title>press-img-3</title>
    <desc>Created with Sketch.</desc>
    <defs>
        <polygon id="path-1" points="3.9365 8 0 8 0 0.7761 3.9365 0.7761 3.9365 8"></polygon>
    </defs>
    <g id="Page-1" stroke="none" stroke-width="1" fill="none" fill-rule="evenodd">
        <g id="press-img-3">
            <g transform="translate(0.000000, 10.000000)">
                <polygon id="Fill-1" fill="#2B2B2B" points="32.7951 1.0151 32.7951 3.2631 34.8981 3.2631 34.8981 6.2511 30.5131 6.2511 30.5131 1.0151 28.2361 1.0151 28.2361 13.8881 30.5131 13.8881 30.5131 8.4811 34.8981 8.4811 34.8981 13.8881 37.1291 13.8881 37.1291 1.0151"></polygon>
                <polygon id="Fill-2" fill="#2B2B2B" points="37.8738 1.0331 37.8738 3.2631 39.9758 3.2631 39.9758 11.6551 37.8738 11.6551 37.8738 13.8881 44.3178 13.8881 44.3178 11.6551 42.2158 11.6551 42.2158 3.2631 42.2258 3.2631 44.3278 3.2631 44.3278 1.0331"></polygon>
                <polygon id="Fill-3" fill="#2B2B2B" points="52.9227 1.0151 47.3157 9.6491 47.3007 9.6491 47.3007 3.2301 49.3877 3.2301 49.3877 1.0151 45.0357 1.0151 45.0357 13.8851 47.0907 13.8851 55.6927 1.0151"></polygon>
                <polygon id="Fill-4" fill="#2B2B2B" points="56.2698 0.9998 56.2698 13.8878 62.8478 13.8878 62.8478 11.6548 58.5298 11.6548 58.5298 8.6188 60.9728 8.6188 60.9728 6.3888 58.5298 6.3888 58.5298 3.2478 62.8438 3.2478 62.8438 0.9998"></polygon>
                <g id="Group-14" transform="translate(0.000000, 0.887800)">
                    <path d="M8.0508,12.8496 L8.0508,9.3526 C8.0848,9.0426 8.0048,8.7306 7.8278,8.4756 C7.6258,8.2996 7.3608,8.2146 7.0948,8.2406 C6.9258,8.2386 6.7578,8.2756 6.6058,8.3506 C6.4658,8.4216 6.3428,8.5236 6.2468,8.6486 C6.1458,8.7786 6.0698,8.9266 6.0238,9.0846 C5.9738,9.2576 5.9488,9.4376 5.9508,9.6176 L5.9508,12.8526 L4.4758,12.8526 L4.4758,5.1466 L5.9558,5.1466 L5.9558,7.9506 C6.0178,7.8186 6.1028,7.7006 6.2088,7.6016 C6.3208,7.4886 6.4488,7.3946 6.5888,7.3206 C6.7398,7.2416 6.9008,7.1796 7.0668,7.1376 C7.2448,7.0906 7.4288,7.0676 7.6128,7.0686 C8.1228,7.0466 8.6228,7.2166 9.0148,7.5446 C9.3738,7.8836 9.5648,8.3656 9.5358,8.8606 L9.5358,12.8496 L8.0508,12.8496 Z" id="Fill-5" fill="#2B2B2B"></path>
                    <path d="M13.8221,9.4798 C13.8181,9.2928 13.7821,9.1078 13.7131,8.9348 C13.6561,8.7878 13.5701,8.6558 13.4601,8.5448 C13.3561,8.4428 13.2321,8.3638 13.0961,8.3148 C12.9611,8.2658 12.8191,8.2408 12.6761,8.2408 C12.3891,8.2408 12.1151,8.3588 11.9171,8.5668 C11.6871,8.8158 11.5561,9.1408 11.5471,9.4798 L13.8251,9.4798 L13.8221,9.4798 Z M11.4891,10.4208 C11.4911,10.7928 11.6221,11.1538 11.8591,11.4398 C12.0821,11.6918 12.4061,11.8308 12.7421,11.8168 C12.9671,11.8218 13.1891,11.7648 13.3841,11.6518 C13.5611,11.5518 13.6901,11.3848 13.7441,11.1878 L15.2621,11.1878 C15.1171,11.7248 14.7961,12.1978 14.3511,12.5288 C13.8981,12.8478 13.3551,13.0118 12.8021,12.9978 C10.9351,12.9978 10.0021,11.9728 10.0021,9.9238 C9.9961,9.5228 10.0581,9.1238 10.1841,8.7428 C10.2961,8.4078 10.4761,8.0998 10.7121,7.8378 C10.9481,7.5848 11.2381,7.3888 11.5601,7.2648 C11.9271,7.1248 12.3171,7.0568 12.7091,7.0638 C13.5741,7.0638 14.2291,7.3418 14.6721,7.8998 C15.1161,8.4568 15.3431,9.2968 15.3551,10.4208 L11.4891,10.4208 Z" id="Fill-7" fill="#2B2B2B"></path>
                    <g id="Group-11" transform="translate(0.000000, 5.000000)">
                        <mask id="mask-2" fill="white">
                            <use xlink:href="#path-1"></use>
                        </mask>
                        <g id="Clip-10"></g>
                        <polygon id="Fill-9" fill="#2B2B2B" mask="url(#mask-2)" points="1.4725 0.7761 -0.0005 0.7761 -0.0005 8.0001 1.4395 8.0001 3.9365 5.5351 2.8945 4.4491 1.4725 5.8791 1.4725 3.3961 3.8865 3.3961 3.8865 2.2651 1.4725 2.2651"></polygon>
                    </g>
                    <path d="M24.9951,3.951 C24.6011,3.459 24.1141,3.05 23.5631,2.748 C23.0011,2.452 22.3751,2.302 21.7411,2.312 C21.1941,2.307 20.6531,2.432 20.1621,2.676 C19.6841,2.91 19.2541,3.235 18.8971,3.632 C18.5501,4.028 18.2721,4.48 18.0781,4.971 C17.8751,5.472 17.7711,6.009 17.7721,6.551 C17.7711,7.104 17.8771,7.652 18.0851,8.165 C18.2861,8.679 18.5791,9.152 18.9511,9.559 C19.3161,9.956 19.7531,10.281 20.2381,10.515 C20.7321,10.755 21.2741,10.878 21.8221,10.874 C22.4171,10.889 23.0041,10.745 23.5251,10.456 C24.0341,10.149 24.4901,9.76 24.8741,9.304 L27.5181,9.304 C27.2841,9.86 26.9671,10.376 26.5761,10.833 C26.1901,11.286 25.7391,11.678 25.2381,11.996 C24.7341,12.315 24.1891,12.564 23.6191,12.737 C23.0521,12.909 22.4641,12.995 21.8731,12.992 C21.0181,12.999 20.1721,12.825 19.3881,12.483 C18.6301,12.152 17.9431,11.677 17.3641,11.083 C16.7851,10.486 16.3221,9.785 16.0001,9.016 C15.6651,8.228 15.4921,7.38 15.4941,6.523 C15.4911,5.679 15.6641,4.844 16.0001,4.071 C16.3231,3.317 16.7861,2.633 17.3641,2.055 C17.9441,1.478 18.6251,1.014 19.3731,0.688 C20.1451,0.348 20.9801,0.175 21.8221,0.178 C23.0431,0.178 24.2371,0.532 25.2631,1.198 C25.7651,1.526 26.2191,1.922 26.6121,2.376 C27.0171,2.846 27.3461,3.377 27.5861,3.951 L24.9951,3.951 Z" id="Fill-12" fill="#2B2B2B"></path>
                </g>
            </g>
        </g>
    </g>
</svg>