<?xml version="1.0" encoding="UTF-8" standalone="no"?>
<svg width="98px" height="36px" viewBox="0 0 98 36" version="1.1" xmlns="http://www.w3.org/2000/svg" xmlns:xlink="http://www.w3.org/1999/xlink">
    <!-- Generator: Sketch 39.1 (31720) - http://www.bohemiancoding.com/sketch -->
    <title>press-img-2</title>
    <desc>Created with Sketch.</desc>
    <defs>
        <polygon id="path-1" points="0.4873 15 9.23907622 15 9.23907622 0.167138656 0.4873 0.167138656 0.4873 15"></polygon>
        <polygon id="path-3" points="1.961 2.3214 1.961 0.9124 0.2881 0.9124 0.2881 2.3214 1.961 2.3214"></polygon>
    </defs>
    <g id="Page-1" stroke="none" stroke-width="1" fill="none" fill-rule="evenodd">
        <g id="press-img-2">
            <g transform="translate(0.000000, 10.000000)">
                <path d="M8.6893,0 C8.6243,1.124 8.5583,2.249 8.4933,3.412 C7.9183,3.386 7.3693,3.373 6.7813,3.348 C6.7423,2.637 6.7033,1.952 6.6643,1.241 L4.0113,1.241 L4.0113,6.269 L5.1613,6.269 C5.2523,5.907 5.3443,5.545 5.4353,5.157 L6.6243,5.157 L6.6243,8.621 L5.4623,8.621 C5.3573,8.272 5.2523,7.884 5.1613,7.497 L4.0243,7.497 L4.0243,12.835 L6.6903,12.835 C6.7683,12.072 6.8603,11.322 6.9513,10.521 C7.5523,10.547 8.1273,10.56 8.7413,10.586 C8.7943,11.775 8.8333,12.938 8.8853,14.127 L0.1563,14.127 L0.1563,12.886 C0.5753,12.809 0.9673,12.744 1.3853,12.68 L1.3853,1.383 C0.9013,1.331 0.4573,1.28 0.0003,1.228 L0.0003,0 L8.6893,0 Z" id="Fill-1" fill="#2B2B2B"></path>
                <g id="Group-5" transform="translate(39.000000, 3.909500)">
                    <mask id="mask-2" fill="white">
                        <use xlink:href="#path-1"></use>
                    </mask>
                    <g id="Clip-4"></g>
                    <path d="M3.9763,8.7054 C4.7473,9.0284 5.4923,9.0414 6.2633,8.7834 C6.4193,8.7314 6.4983,8.6404 6.5373,8.4984 C6.6293,8.1234 6.7463,7.7494 6.7983,7.3744 C6.9683,6.2234 6.9423,5.0604 6.8643,3.8974 C6.8383,3.5094 6.7593,3.1084 6.6423,2.7344 C6.3803,1.9194 5.8183,1.5964 4.9563,1.7384 C4.9173,1.7514 4.8783,1.7644 4.8253,1.7644 C4.3033,1.8684 3.9763,2.2554 3.9763,2.7724 L3.9763,8.4214 L3.9763,8.7054 Z M0.5923,15.0004 C0.6183,14.6514 0.6313,14.3404 0.6573,14.0304 C0.9713,13.9664 1.2713,13.9014 1.5853,13.8234 L1.5853,1.7774 C1.2323,1.7254 0.8663,1.6744 0.4873,1.6094 L0.4873,0.6014 C1.4413,0.4724 2.3953,0.3424 3.3883,0.2004 C3.4933,0.5754 3.5843,0.9114 3.6893,1.2734 C3.7283,1.2344 3.7673,1.2084 3.8063,1.1704 C4.5123,0.3684 5.4263,0.0844 6.4723,0.1874 C7.7783,0.3174 8.4973,1.1314 8.8633,2.2944 C9.0203,2.8114 9.1373,3.3674 9.1773,3.9104 C9.2683,5.0214 9.2813,6.1464 9.0593,7.2574 C8.9813,7.6714 8.8633,8.0724 8.7063,8.4594 C8.1973,9.6234 7.2823,10.2434 6.0143,10.3464 C5.3613,10.3984 4.7343,10.3464 4.1333,10.0754 C4.0943,10.0624 4.0543,10.0494 3.9893,10.0364 L3.9893,13.8234 C4.3033,13.8884 4.6163,13.9534 4.9823,14.0304 C4.9563,14.3534 4.9433,14.6634 4.9173,15.0004 L0.5923,15.0004 Z" id="Fill-3" fill="#2B2B2B" mask="url(#mask-2)"></path>
                </g>
                <path d="M71.9189,12.8993 C72.2849,12.9773 72.5979,13.0413 72.9379,13.1063 C72.9249,13.4553 72.8989,13.7783 72.8859,14.1273 L69.5539,14.1273 C69.5539,14.0493 69.5409,13.9853 69.5409,13.9073 C69.5409,11.7233 69.5539,9.5383 69.5409,7.3543 C69.5409,7.0573 69.4759,6.7603 69.3839,6.4753 C69.2799,6.1393 68.9919,5.9453 68.6389,5.8683 C68.2999,5.7903 67.9599,5.8163 67.6459,5.9453 C67.3719,6.0623 67.1499,6.2813 67.1499,6.6043 L67.1499,12.8093 C67.1499,12.8343 67.1629,12.8473 67.1759,12.8993 C67.4759,12.9643 67.7899,13.0283 68.1559,13.0933 C68.1299,13.4293 68.1169,13.7653 68.0899,14.1273 L63.8049,14.1273 L63.8049,13.1063 C64.1309,13.0413 64.4319,12.9773 64.7579,12.8993 L64.7579,5.7903 C64.4059,5.7513 64.0399,5.7133 63.6609,5.6613 L63.6609,4.6143 C64.5889,4.4853 65.5159,4.3553 66.4829,4.2133 C66.5749,4.5233 66.6529,4.8343 66.7319,5.1183 C66.9409,4.9633 67.1629,4.7693 67.4109,4.6143 C68.3389,4.0323 69.3449,3.9293 70.3769,4.2913 C71.2399,4.6013 71.6969,5.2733 71.8409,6.1523 C71.8799,6.3983 71.8929,6.6433 71.8929,6.8893 L71.8929,12.5113 C71.9189,12.6533 71.9189,12.7703 71.9189,12.8993" id="Fill-6" fill="#2B2B2B"></path>
                <path d="M13.0797,12.8993 C13.4197,12.9643 13.7327,13.0283 14.0597,13.0933 C14.0337,13.4423 14.0207,13.7653 13.9947,14.1143 L9.6697,14.1143 C9.6827,13.7783 9.7087,13.4553 9.7217,13.0933 C10.0347,13.0283 10.3357,12.9643 10.6367,12.8993 C10.7017,12.6663 10.7277,6.1393 10.6497,5.7773 C10.2967,5.7383 9.9307,5.7003 9.5647,5.6613 L9.5647,4.6143 C10.4927,4.4853 11.4207,4.3553 12.4007,4.2133 C12.4917,4.5233 12.5697,4.8213 12.6617,5.1443 C12.7397,5.0793 12.8317,4.9893 12.9227,4.9113 C13.8247,4.1493 14.8697,3.9293 16.0067,4.2003 C16.9997,4.4333 17.5617,5.1053 17.7577,6.0753 C17.8097,6.3203 17.8227,6.5923 17.8227,6.8503 L17.8227,12.4983 L17.8227,12.8863 C18.1757,12.9513 18.4897,13.0153 18.8417,13.0803 C18.8287,13.2483 18.8157,13.4163 18.8157,13.5843 L18.8157,14.1143 L15.4707,14.1143 L15.4707,13.7393 L15.4707,7.5353 C15.4707,7.2893 15.4447,7.0443 15.4057,6.7983 C15.3137,6.2303 14.9747,5.8813 14.3867,5.8293 C13.9687,5.7903 13.5367,5.8033 13.2237,6.1783 C13.1057,6.3333 13.0407,6.4753 13.0407,6.6693 C13.0537,8.2463 13.0407,9.8103 13.0407,11.3873 L13.0407,12.5503 C13.0667,12.6793 13.0667,12.7833 13.0797,12.8993" id="Fill-8" fill="#2B2B2B"></path>
                <path d="M87.22,5.532 C86.854,5.493 86.501,5.467 86.122,5.429 L86.122,4.511 C87.194,4.395 88.265,4.265 89.363,4.149 C89.494,4.55 89.637,4.912 89.637,5.325 C89.624,7.729 89.637,10.133 89.637,12.525 L89.637,12.912 C89.99,12.977 90.304,13.042 90.643,13.119 C90.604,13.468 90.578,13.791 90.539,14.14 L87.756,14.14 C87.677,13.895 87.586,13.636 87.494,13.352 C87.403,13.416 87.338,13.468 87.272,13.52 C86.135,14.541 84.607,14.437 83.64,13.972 C82.882,13.61 82.477,12.99 82.346,12.188 C82.294,11.93 82.281,11.659 82.281,11.387 L82.281,5.959 L82.281,5.558 C81.902,5.519 81.549,5.48 81.183,5.442 L81.183,4.524 C82.242,4.408 83.3,4.278 84.398,4.149 C84.489,4.511 84.646,4.834 84.646,5.209 L84.646,10.896 C84.646,11.154 84.659,11.413 84.698,11.671 C84.79,12.369 85.247,12.783 85.953,12.796 C86.201,12.796 86.449,12.757 86.697,12.693 C86.959,12.628 87.298,12.176 87.298,11.917 L87.298,5.648 C87.259,5.61 87.246,5.584 87.22,5.532" id="Fill-10" fill="#2B2B2B"></path>
                <path d="M37.1877,8.5306 C37.1617,8.2336 37.1487,7.9876 37.1227,7.7426 C37.0567,7.1606 36.9397,6.5916 36.6387,6.0746 C36.3127,5.5066 35.8287,5.3376 35.2017,5.5316 C34.9537,5.6096 34.7967,5.7516 34.6917,5.9846 C34.3657,6.7856 34.2087,7.6126 34.1697,8.4656 C34.1697,8.5306 34.1957,8.5826 34.2087,8.6596 C35.1887,8.6206 36.1687,8.5826 37.1877,8.5306 M34.2087,9.8106 C34.2087,10.6116 34.3387,11.3226 34.7707,11.9556 C35.1627,12.5116 35.6977,12.8086 36.3907,12.8216 C37.0437,12.8346 37.6577,12.7056 38.2587,12.4596 C38.3377,12.4206 38.4157,12.3956 38.5337,12.3566 C38.6647,12.6536 38.7947,12.9506 38.9387,13.2746 C38.7557,13.3906 38.5987,13.5326 38.4027,13.6236 C37.2007,14.2696 35.9337,14.4886 34.5877,14.1016 C33.4637,13.7786 32.7317,13.0156 32.2487,11.9946 C31.7127,10.8696 31.5947,9.6806 31.6997,8.4656 C31.7647,7.7166 31.9217,7.0056 32.2487,6.3206 C32.7707,5.2086 33.5817,4.4466 34.8227,4.1876 C35.9987,3.9426 37.0967,4.0846 38.0107,4.9506 C38.5467,5.4676 38.8467,6.1136 39.0567,6.8246 C39.2657,7.5486 39.3437,8.2846 39.3437,9.0216 C39.3437,9.2676 39.1997,9.5126 39.1217,9.7586 C37.4747,9.7716 35.8677,9.7846 34.2087,9.8106" id="Fill-12" fill="#2B2B2B"></path>
                <path d="M78.7789,8.5306 C78.7529,7.8586 78.6739,7.2256 78.4779,6.6176 C78.3739,6.3076 78.2299,6.0356 78.0209,5.7776 C77.6289,5.2866 76.4399,5.3766 76.2569,6.0616 C76.1129,6.6046 75.9169,7.1476 75.8389,7.7166 C75.7999,8.0266 75.7339,8.3236 75.7999,8.6726 C76.7929,8.6206 77.7599,8.5826 78.7789,8.5306 M80.7389,9.7456 C79.0659,9.7716 77.4589,9.7846 75.8259,9.8106 C75.7869,10.1596 75.8389,10.4826 75.9039,10.8056 C75.9959,11.2966 76.1789,11.7486 76.5179,12.1366 C76.8969,12.5766 77.3679,12.7956 77.9429,12.8086 C78.5699,12.8346 79.1709,12.7186 79.7589,12.4856 C79.8769,12.4336 79.9939,12.3956 80.1509,12.3436 C80.2819,12.6406 80.4119,12.9376 80.5559,13.2746 C80.5039,13.3126 80.4519,13.3386 80.3989,13.3776 C79.3539,14.1016 78.1779,14.3856 76.9369,14.2436 C75.3949,14.0756 74.3619,13.1836 73.8009,11.7876 C73.0819,9.9916 73.1079,8.1686 73.8529,6.3716 C74.3359,5.2216 75.1729,4.4336 76.4399,4.1616 C77.4329,3.9546 78.3869,4.0196 79.2489,4.6016 C79.8639,5.0146 80.2419,5.6226 80.5039,6.2946 C80.8439,7.1606 80.9739,8.0656 80.9479,8.9826 C80.9349,9.2416 80.8169,9.4866 80.7389,9.7456" id="Fill-14" fill="#2B2B2B"></path>
                <path d="M61.3088,8.5306 C61.2828,8.2076 61.2698,7.9236 61.2308,7.6386 C61.1648,7.1086 61.0478,6.5786 60.7728,6.1006 C60.4198,5.4806 59.8848,5.3126 59.2178,5.5706 C59.0478,5.6356 58.9308,5.7386 58.8518,5.9066 C58.5648,6.5406 58.4208,7.2126 58.3298,7.8976 C58.3038,8.1426 58.2908,8.3756 58.2638,8.6726 C59.3098,8.6206 60.2898,8.5826 61.3088,8.5306 M63.2558,9.7456 C61.5958,9.7716 59.9758,9.7846 58.3428,9.8106 C58.3558,10.6886 58.4868,11.4776 59.0478,12.1366 C59.4008,12.5636 59.8718,12.7956 60.4338,12.8086 C61.0738,12.8346 61.6878,12.7316 62.2888,12.4856 C62.4068,12.4336 62.5238,12.3956 62.6678,12.3306 C62.7988,12.6276 62.9288,12.9256 63.0728,13.2486 C62.9548,13.3256 62.8508,13.4166 62.7328,13.4936 C61.6098,14.1916 60.3678,14.4376 59.0748,14.1786 C57.8588,13.9466 57.0098,13.1966 56.4608,12.1236 C55.8988,11.0256 55.7428,9.8486 55.8338,8.6466 C55.8858,7.8326 56.0428,7.0446 56.3958,6.3076 C56.8008,5.4416 57.4018,4.7436 58.3168,4.3816 C59.3878,3.9676 60.4858,3.9166 61.5308,4.4846 C62.2238,4.8596 62.6548,5.4546 62.9548,6.1526 C63.3468,7.0576 63.4778,8.0136 63.4778,8.9956 C63.4778,9.2416 63.3338,9.4996 63.2558,9.7456" id="Fill-16" fill="#2B2B2B"></path>
                <path d="M27.7405,4.2136 C27.8185,4.5106 27.8845,4.7956 27.9625,5.0926 C28.0805,5.0276 28.1975,4.9506 28.3155,4.8856 C29.0075,4.4846 29.7525,4.3036 30.5495,4.2136 C30.9285,4.1746 31.2035,4.2916 31.4255,4.6146 C31.3335,5.4676 31.2295,6.3466 31.1245,7.2506 C30.5755,7.2256 30.0665,7.2126 29.5175,7.1866 C29.4525,6.7086 29.3995,6.2556 29.3475,5.7776 C28.9555,5.8036 28.6295,5.9196 28.3285,6.1266 L28.3285,12.9126 C28.6555,12.9896 28.9685,13.0546 29.3215,13.1316 C29.3085,13.4676 29.2825,13.7786 29.2695,14.1276 L24.9965,14.1276 L24.9965,13.1446 C25.2975,13.0676 25.5975,12.9896 25.8855,12.9256 L25.8855,5.8036 C25.5325,5.7646 25.2055,5.7256 24.8525,5.6866 L24.8525,4.6406 C25.7935,4.4846 26.7475,4.3556 27.7405,4.2136" id="Fill-18" fill="#2B2B2B"></path>
                <path d="M91.2315,14.1272 C91.2445,13.7782 91.2575,13.4552 91.2835,13.1322 C91.5845,13.0542 91.8585,12.9902 92.1725,12.9122 L92.1725,5.7902 C91.8455,5.7512 91.5055,5.7132 91.1265,5.6612 L91.1265,5.1442 L91.1265,4.6142 C92.1205,4.4852 93.0735,4.3562 94.0405,4.2132 C94.1195,4.5112 94.1845,4.7952 94.2495,5.0412 C94.6545,4.8602 95.0605,4.6272 95.4915,4.4852 C95.9095,4.3432 96.3535,4.2912 96.7975,4.2002 C97.1765,4.1232 97.4775,4.2392 97.7125,4.5882 C97.6215,5.4282 97.5165,6.3072 97.4125,7.2122 C96.8765,7.1862 96.3535,7.1732 95.8175,7.1472 C95.7525,6.6692 95.7005,6.2042 95.6345,5.6872 C95.2825,5.8032 94.9555,5.9202 94.6285,6.0362 L94.6285,12.8732 C94.9425,12.9382 95.2695,13.0152 95.6215,13.0932 C95.5955,13.4292 95.5825,13.7522 95.5565,14.0882 C94.0935,14.1272 92.6815,14.1272 91.2315,14.1272" id="Fill-20" fill="#2B2B2B"></path>
                <path d="M53.4557,5.7129 C53.0767,5.8549 52.7497,5.9709 52.4367,6.0879 L52.4367,12.9119 C52.7767,12.9899 53.1027,13.0539 53.4427,13.1319 C53.4167,13.4679 53.3907,13.7909 53.3647,14.1269 L49.0917,14.1269 L49.0917,13.1449 C49.3917,13.0669 49.6927,12.9899 49.9927,12.9119 L49.9927,5.7909 C49.6407,5.7519 49.3007,5.7129 48.9477,5.6739 L48.9477,4.6269 C49.9017,4.4979 50.8427,4.3689 51.8487,4.2269 C51.9267,4.5109 52.0187,4.7949 52.0967,5.0799 C52.3847,4.9369 52.6457,4.7819 52.9327,4.6529 C53.4557,4.4079 54.0307,4.3169 54.6057,4.2269 C54.9847,4.1749 55.2847,4.2649 55.5337,4.6139 C55.4417,5.4539 55.3377,6.3329 55.2457,7.2509 C54.7097,7.2379 54.1877,7.2119 53.6387,7.1989 C53.5737,6.6949 53.5207,6.2429 53.4557,5.7129" id="Fill-22" fill="#2B2B2B"></path>
                <path d="M22.2656,2.3394 L22.2656,4.3424 L24.0426,4.3424 C24.0036,4.7824 23.9646,5.1834 23.9246,5.5964 C23.3766,5.6614 22.8666,5.7124 22.3306,5.7774 C22.3176,5.8684 22.3046,5.9454 22.3046,6.0364 C22.3046,7.9614 22.3046,9.8874 22.3176,11.8134 C22.3176,11.9424 22.3176,12.0724 22.3306,12.2014 C22.3836,12.6024 22.6706,12.8604 23.0756,12.8734 C23.4026,12.8864 23.7286,12.8734 24.0946,12.8734 C24.1346,13.2354 24.1606,13.5714 24.1996,13.9074 C23.9386,14.0754 23.6636,14.1274 23.3896,14.1784 C22.7886,14.2954 22.1876,14.3344 21.5726,14.2304 C20.6456,14.0754 20.0316,13.4554 19.9266,12.5244 C19.9006,12.3304 19.9006,12.1364 19.9006,11.9424 L19.9006,6.1264 C19.9006,6.0104 19.8876,5.8934 19.8746,5.7774 C19.4956,5.7124 19.1426,5.6614 18.7506,5.5964 C18.7636,5.1954 18.7896,4.8084 18.8026,4.3684 C19.2206,4.3424 19.6266,4.3294 20.0706,4.3044 C20.2536,3.6834 20.4496,3.0504 20.6326,2.4174 C21.1806,2.3914 21.7036,2.3654 22.2656,2.3394" id="Fill-24" fill="#2B2B2B"></path>
                <g id="Group-28" transform="translate(96.000000, 11.909500)">
                    <mask id="mask-4" fill="white">
                        <use xlink:href="#path-3"></use>
                    </mask>
                    <g id="Clip-27"></g>
                    <path d="M1.0331,1.5714 L1.0981,1.5714 C1.1771,1.5714 1.2421,1.5454 1.2421,1.4934 C1.2421,1.4424 1.1901,1.4164 1.1111,1.4164 L1.0331,1.4164 L1.0331,1.5714 Z M1.0201,1.9464 L0.7851,1.9464 L0.7851,1.3004 C0.8371,1.2874 0.9551,1.2744 1.1111,1.2744 C1.2811,1.2744 1.3601,1.3004 1.4121,1.3254 C1.4641,1.3514 1.4901,1.4034 1.4901,1.4684 C1.4901,1.5324 1.4251,1.5844 1.3201,1.6104 L1.3201,1.6234 C1.3991,1.6494 1.4511,1.7004 1.4771,1.7914 C1.5031,1.8814 1.5161,1.9204 1.5301,1.9464 L1.2681,1.9464 C1.2421,1.9204 1.2291,1.8684 1.2161,1.8044 C1.2031,1.7394 1.1641,1.7004 1.0851,1.7004 L1.0071,1.7004 L1.0071,1.9464 L1.0201,1.9464 Z M0.5361,1.6104 C0.5361,1.9074 0.7851,2.1404 1.1241,2.1404 C1.4641,2.1404 1.7121,1.9074 1.7121,1.6104 C1.7121,1.3254 1.4641,1.0804 1.1241,1.0804 C0.7851,1.0804 0.5361,1.3254 0.5361,1.6104 L0.5361,1.6104 Z M1.9611,1.6104 C1.9611,1.9984 1.5951,2.3214 1.1241,2.3214 C0.6541,2.3214 0.2881,2.0104 0.2881,1.6104 C0.2881,1.2224 0.6541,0.9124 1.1241,0.9124 C1.5951,0.9124 1.9611,1.2224 1.9611,1.6104 L1.9611,1.6104 Z" id="Fill-26" fill="#2B2B2B" mask="url(#mask-4)"></path>
                </g>
            </g>
        </g>
    </g>
</svg>