<?xml version="1.0" encoding="UTF-8" standalone="no"?>
<svg width="81px" height="36px" viewBox="0 0 81 36" version="1.1" xmlns="http://www.w3.org/2000/svg" xmlns:xlink="http://www.w3.org/1999/xlink">
    <!-- Generator: Sketch 39.1 (31720) - http://www.bohemiancoding.com/sketch -->
    <title>press-img-5</title>
    <desc>Created with Sketch.</desc>
    <defs></defs>
    <g id="Page-1" stroke="none" stroke-width="1" fill="none" fill-rule="evenodd">
        <g id="press-img-5" fill="#2B2B2B">
            <g id="press-img-6" transform="translate(0.000000, 12.000000)">
                <polygon id="Fill-1" points="6.7266 1.1403 6.7266 5.3443 1.6826 5.3443 1.6826 1.1403 -0.0004 1.1403 -0.0004 11.5103 1.6826 11.5103 1.6826 7.0263 6.7266 7.0263 6.7266 11.5103 8.4086 11.5103 8.4086 1.1403"></polygon>
                <g id="Group-18" transform="translate(9.000000, 0.650500)">
                    <path d="M15.9446,3.8782 C15.9446,4.5552 15.4966,5.1142 14.5996,5.1142 L11.7406,5.1142 L11.7406,2.1712 L14.5996,2.1712 C15.4686,2.1712 15.9446,2.7602 15.9446,3.3782 L15.9446,3.8782 Z M10.0586,0.4892 L10.0586,10.8602 L11.7406,10.8602 L11.7406,6.6562 L14.7676,6.6562 C16.5336,6.6562 17.6266,5.4222 17.6266,3.9932 L17.6266,3.2082 C17.6266,1.7232 16.4776,0.4892 14.7676,0.4892 L10.0586,0.4892 Z" id="Fill-2"></path>
                    <polygon id="Fill-4" points="7.2561 0.4896 4.7621 4.7776 2.2671 0.4896 0.2211 0.4896 3.8931 6.4316 3.8931 10.8596 5.5741 10.8596 5.5741 6.4316 9.1901 0.4896"></polygon>
                    <polygon id="Fill-6" points="20.7094 6.3754 25.7544 6.3754 25.7544 4.6934 20.7094 4.6934 20.7094 2.1714 26.0344 2.1714 26.0344 0.4894 19.0274 0.4894 19.0274 10.8594 26.0344 10.8594 26.0344 9.1784 20.7094 9.1784"></polygon>
                    <polygon id="Fill-8" points="72 0.4896 64.152 0.4896 64.152 2.0316 67.235 2.0316 67.235 10.8596 68.917 10.8596 68.917 2.0316 72 2.0316"></polygon>
                    <path d="M34.1626,8.2 C34.1626,8.847 33.7146,9.318 33.0416,9.318 L29.6786,9.318 L29.6786,6.375 L33.0416,6.375 C33.8546,6.375 34.1626,7.052 34.1626,7.67 L34.1626,8.2 Z M32.7336,2.031 C33.5736,2.031 33.8826,2.59 33.8826,3.179 L33.8826,3.65 C33.8826,4.209 33.5736,4.974 32.7336,4.974 L29.6786,4.974 L29.6786,2.031 L32.7336,2.031 Z M34.5546,5.535 C35.1716,5.198 35.5636,4.582 35.5636,3.965 L35.5636,3.068 C35.5636,1.807 34.6956,0.49 32.7896,0.49 L27.9966,0.49 L27.9966,10.86 L33.2656,10.86 C35.1996,10.86 35.8446,9.374 35.8446,8.253 L35.8446,7.553 C35.8446,6.712 35.4236,5.955 34.5546,5.535 L34.5546,5.535 Z" id="Fill-10"></path>
                    <path d="M58.7149,4.6938 C57.7339,4.6938 57.1449,4.1328 57.1449,3.4048 L57.1449,3.0958 C57.1449,2.3958 57.5389,1.7508 58.7149,1.7508 L59.9479,1.7508 C61.0809,1.7508 61.5459,2.4238 61.5459,3.2648 L63.2269,3.2648 C63.2269,1.3028 62.1379,0.3498 60.1999,0.3498 L58.5469,0.3498 C56.6689,0.3498 55.4639,1.4148 55.4639,3.0398 L55.4639,3.6288 C55.4639,5.0578 56.7249,6.3758 58.4629,6.3758 L60.1159,6.3758 C61.2369,6.3758 61.9099,7.1598 61.9099,7.8608 L61.9099,8.0848 C61.9099,8.8138 61.2389,9.5988 60.1999,9.5988 L58.7989,9.5988 C57.8999,9.5988 57.2009,8.8978 57.2009,8.0568 L55.4919,8.0568 C55.4919,9.7388 56.5009,10.9998 58.6589,10.9998 L60.3129,10.9998 C62.2439,10.9998 63.5639,9.8508 63.5639,8.0848 L63.5639,7.7208 C63.5919,5.9828 61.9659,4.6938 60.3969,4.6938 L58.7149,4.6938 Z" id="Fill-12"></path>
                    <path d="M48.681,6.936 L50.166,2.508 L51.68,6.936 L48.681,6.936 Z M49.214,0.49 L45.542,10.86 L47.336,10.86 L48.148,8.337 L52.156,8.337 L52.969,10.86 L54.847,10.86 L51.203,0.49 L49.214,0.49 Z" id="Fill-14"></path>
                    <polygon id="Fill-16" points="39.2076 6.3754 44.2526 6.3754 44.2526 4.6934 39.2076 4.6934 39.2076 2.1714 44.5326 2.1714 44.5326 0.4894 37.5256 0.4894 37.5256 10.8594 44.5326 10.8594 44.5326 9.1784 39.2076 9.1784"></polygon>
                </g>
            </g>
        </g>
    </g>
</svg>