<?xml version="1.0" encoding="UTF-8" standalone="no"?>
<svg width="37px" height="36px" viewBox="0 0 37 36" version="1.1" xmlns="http://www.w3.org/2000/svg" xmlns:xlink="http://www.w3.org/1999/xlink">
    <!-- Generator: Sketch 39.1 (31720) - http://www.bohemiancoding.com/sketch -->
    <title>press-img-4</title>
    <desc>Created with Sketch.</desc>
    <defs>
        <polygon id="path-1" points="18.5001 18 37 18 37 0 18.5001 0 0.0002 0 0.0002 18 18.5001 18"></polygon>
    </defs>
    <g id="Page-1" stroke="none" stroke-width="1" fill="none" fill-rule="evenodd">
        <g id="press-img-4">
            <g transform="translate(0.000000, 7.000000)">
                <mask id="mask-2" fill="white">
                    <use xlink:href="#path-1"></use>
                </mask>
                <g id="Clip-2"></g>
                <path d="M26.9442,0 C31.9192,0 35.9762,4.043 35.9762,9 C35.9762,10.87 35.3982,12.61 34.4122,14.052 L37.0002,17.444 L31.4692,17.444 L31.1142,16.979 C29.8652,17.63 28.4472,18 26.9442,18 C22.3662,18 18.5652,14.576 17.9882,10.167 C17.4112,14.576 13.6102,18 9.0322,18 C4.0572,18 0.0002,13.957 0.0002,9 C0.0002,4.043 4.0572,0 9.0322,0 C13.0152,0 16.4092,2.591 17.6042,6.169 L11.9972,6.169 C11.2482,5.39 10.1952,4.905 9.0322,4.905 C6.7682,4.905 4.9222,6.744 4.9222,9 C4.9222,11.256 6.7682,13.095 9.0322,13.095 C10.2692,13.095 11.3812,12.546 12.1362,11.68 L9.5902,11.68 L9.5902,7.635 L12.9062,7.635 L15.5272,7.635 L17.9602,7.635 C17.9702,7.7 17.9792,7.766 17.9882,7.832 C18.5662,3.423 22.3662,0 26.9442,0 L26.9442,0 Z M25.2192,9.253 L30.7502,9.253 L31.0102,9.595 C31.0392,9.4 31.0542,9.202 31.0542,9 C31.0542,6.744 29.2082,4.905 26.9442,4.905 C24.6802,4.905 22.8342,6.744 22.8342,9 C22.8342,11.256 24.6802,13.095 26.9442,13.095 C27.3232,13.095 27.6892,13.044 28.0382,12.947 L25.2192,9.253 Z" id="Fill-1" fill="#2B2B2B" mask="url(#mask-2)"></path>
            </g>
        </g>
    </g>
</svg>