<?xml version="1.0" encoding="UTF-8" standalone="no"?>
<svg width="157px" height="36px" viewBox="0 0 157 36" version="1.1" xmlns="http://www.w3.org/2000/svg" xmlns:xlink="http://www.w3.org/1999/xlink">
    <!-- Generator: Sketch 39.1 (31720) - http://www.bohemiancoding.com/sketch -->
    <title>press-img-1</title>
    <desc>Created with Sketch.</desc>
    <defs>
        <polygon id="path-1" points="0 0.0784 0 12.8634 9.6369 12.8634 9.6369 0.0784 6.77626358e-21 0.0784"></polygon>
        <polygon id="path-3" points="0.0914 12 12.6664 12 12.6664 0.7394 0.0914 0.7394 0.0914 12"></polygon>
        <polygon id="path-5" points="0.0276 12 12.6126 12 12.6126 0.7394 0.0276 0.7394"></polygon>
        <polygon id="path-7" points="12.528 11.8236 12.528 0.9846 0.6949 0.9846 0.6949 11.8236"></polygon>
    </defs>
    <g id="Page-1" stroke="none" stroke-width="1" fill="none" fill-rule="evenodd">
        <g id="press-img-1">
            <g transform="translate(0.000000, 10.000000)">
                <g id="Group-3" transform="translate(0.000000, 0.921800)">
                    <mask id="mask-2" fill="white">
                        <use xlink:href="#path-1"></use>
                    </mask>
                    <g id="Clip-2"></g>
                    <path d="M1.6989,4.9654 C1.6989,2.4044 1.6989,1.9354 1.6699,1.3974 C1.6399,0.8214 1.5039,0.5574 0.9469,0.4394 C0.8109,0.4004 0.5179,0.3814 0.2829,0.3814 C0.0979,0.3814 -0.0001,0.3514 -0.0001,0.2344 C-0.0001,0.1174 0.1169,0.0784 0.3709,0.0784 C1.2599,0.0784 2.3239,0.1274 2.6559,0.1274 C3.4759,0.1274 4.1399,0.0784 4.7059,0.0784 C7.7519,0.0784 8.2889,1.7104 8.2889,2.6004 C8.2889,3.9784 7.4989,4.8094 6.5709,5.5514 C7.9479,6.0214 9.6369,7.2234 9.6369,9.1884 C9.6369,10.9864 8.2409,12.8634 5.1459,12.8634 C4.9399,12.8634 4.4519,12.8334 3.9639,12.8144 C3.4559,12.7854 2.9579,12.7654 2.7049,12.7654 C2.5189,12.7654 2.1479,12.7654 1.7479,12.7854 C1.3569,12.7854 0.9279,12.8144 0.5859,12.8144 C0.3709,12.8144 0.2539,12.7654 0.2539,12.6484 C0.2539,12.5604 0.3219,12.5114 0.5269,12.5114 C0.7809,12.5114 0.9859,12.4824 1.1329,12.4424 C1.4649,12.3744 1.5529,12.0034 1.6209,11.5144 C1.7089,10.8104 1.7089,9.4814 1.7089,7.9274 L1.6989,4.9654 Z M3.7199,5.2484 C3.7199,5.3854 3.7689,5.4154 3.8369,5.4344 C3.9929,5.4644 4.2379,5.4834 4.6279,5.4834 C5.1849,5.4834 5.5559,5.4154 5.8389,5.1604 C6.2779,4.8094 6.5319,4.2034 6.5319,3.3724 C6.5319,2.2484 5.8779,0.7624 4.4329,0.7624 C4.1979,0.7624 4.0419,0.7624 3.8759,0.7914 C3.7589,0.8214 3.7199,0.8894 3.7199,1.0754 L3.7199,5.2484 Z M5.9359,6.5974 C5.5849,6.3434 5.1939,6.2264 4.5399,6.1974 C4.2379,6.1774 4.0719,6.1774 3.8179,6.1774 C3.7489,6.1774 3.7199,6.2064 3.7199,6.2944 L3.7199,10.2824 C3.7199,11.3974 3.7689,11.6804 4.3059,11.8954 C4.7649,12.0814 5.1459,12.1004 5.5359,12.1004 C6.2979,12.1004 7.5769,11.7004 7.5769,9.9404 C7.5669,8.9044 7.2149,7.4874 5.9359,6.5974 L5.9359,6.5974 Z" id="Fill-1" fill="#2B2B2B" mask="url(#mask-2)"></path>
                </g>
                <path d="M11.9115,7.0504 C11.9115,4.8804 11.9315,4.4704 11.8915,4.0204 C11.8625,3.5124 11.7255,3.3854 11.2575,3.2484 C11.1405,3.2184 10.8865,3.1994 10.6815,3.1994 C10.5155,3.1994 10.4275,3.1504 10.4275,3.0424 C10.4275,2.9454 10.5255,2.9064 10.7495,2.9064 C11.5405,2.9064 12.5365,2.9354 12.9655,2.9354 C13.3365,2.9354 14.3325,2.9064 14.8695,2.9064 C15.0845,2.9064 15.1925,2.9354 15.1925,3.0424 C15.1925,3.1404 15.1045,3.1994 14.9575,3.1994 C14.7915,3.1994 14.7035,3.2184 14.5185,3.2484 C14.1275,3.3164 14.0105,3.5214 13.9815,4.0204 C13.9525,4.4794 13.9525,4.8804 13.9525,7.0504 L13.9525,9.0544 C13.9525,11.1454 14.3525,11.9474 15.0745,12.5244 C15.7295,13.0424 16.4415,13.1004 16.9395,13.1004 C17.5745,13.1004 18.3355,12.9154 18.9215,12.3384 C19.7415,11.5664 19.7805,10.3154 19.7805,8.8484 L19.7805,7.0504 C19.7805,4.8804 19.7615,4.4704 19.7515,4.0204 C19.7225,3.5314 19.5955,3.3854 19.1265,3.2484 C19.0095,3.2184 18.7555,3.1994 18.5895,3.1994 C18.4235,3.1994 18.3355,3.1504 18.3355,3.0424 C18.3355,2.9454 18.4335,2.9064 18.6385,2.9064 C19.4005,2.9064 20.3865,2.9354 20.4055,2.9354 C20.5715,2.9354 21.5675,2.9064 22.1335,2.9064 C22.3385,2.9064 22.4365,2.9354 22.4365,3.0424 C22.4365,3.1404 22.3485,3.1994 22.1825,3.1994 C22.0165,3.1994 21.9285,3.2184 21.7435,3.2484 C21.3435,3.3164 21.2355,3.5214 21.2065,4.0204 C21.1865,4.4794 21.1775,4.8804 21.1775,7.0504 L21.1775,8.5854 C21.1775,10.1884 21.0115,11.8694 19.7615,12.8954 C18.7165,13.7754 17.5935,13.9214 16.6275,13.9214 C15.8555,13.9214 14.3235,13.8924 13.2495,12.9444 C12.4875,12.2894 11.9015,11.2244 11.9015,9.1524 L11.9115,7.0504" id="Fill-4" fill="#2B2B2B"></path>
                <path d="M23.8229,13.5504 C23.5889,13.4524 23.5399,13.3844 23.5399,13.0614 C23.5399,12.2894 23.6079,11.3904 23.6279,11.1554 C23.6279,10.9404 23.6959,10.7844 23.8129,10.7844 C23.9499,10.7844 23.9689,10.9214 23.9689,11.0184 C23.9689,11.2044 24.0179,11.5074 24.1059,11.7614 C24.4279,12.8274 25.5319,13.1794 26.4589,13.1794 C27.7379,13.1794 28.5089,12.3674 28.5089,11.3614 C28.5089,10.7354 28.3529,10.1094 27.0449,9.3374 L26.1859,8.8294 C24.4379,7.8034 23.8619,6.8454 23.8619,5.5744 C23.8619,3.8244 25.5409,2.6914 27.6009,2.6914 C28.5579,2.6914 29.3199,2.8274 29.7009,2.9254 C29.8369,2.9554 29.9059,3.0134 29.9059,3.1114 C29.9059,3.2974 29.8569,3.6974 29.8569,4.8314 C29.8569,5.1344 29.7879,5.2914 29.6709,5.2914 C29.5739,5.2914 29.5249,5.2034 29.5249,5.0364 C29.5249,4.9004 29.4569,4.4604 29.1339,4.0984 C28.9199,3.8244 28.4409,3.4244 27.4839,3.4244 C26.4199,3.4244 25.4629,3.9814 25.4629,4.9584 C25.4629,5.5944 25.6979,6.1024 27.0249,6.8454 L27.6309,7.1774 C29.5829,8.2524 30.1889,9.3474 30.1889,10.6474 C30.1889,11.7124 29.7879,12.5634 28.7049,13.3254 C28.0019,13.8334 27.0249,13.9124 26.2349,13.9124 C25.3659,13.9214 24.4579,13.8334 23.8229,13.5504" id="Fill-6" fill="#2B2B2B"></path>
                <path d="M32.6687,7.0504 C32.6687,4.8804 32.6687,4.4704 32.6487,4.0204 C32.6197,3.5314 32.4637,3.3654 32.1417,3.2584 C31.9757,3.2094 31.7897,3.1894 31.6047,3.1894 C31.4577,3.1894 31.3697,3.1604 31.3697,3.0234 C31.3697,2.9354 31.4877,2.9064 31.7217,2.9064 C32.2777,2.9064 33.2837,2.9354 33.7037,2.9354 C34.0747,2.9354 35.0317,2.9064 35.6077,2.9064 C35.7927,2.9064 35.9097,2.9354 35.9097,3.0234 C35.9097,3.1604 35.8227,3.1894 35.6757,3.1894 C35.5297,3.1894 35.4027,3.2094 35.2367,3.2384 C34.8357,3.3064 34.7187,3.5124 34.6797,4.0104 C34.6507,4.4704 34.6507,4.8704 34.6507,7.0404 L34.6507,9.5624 C34.6507,10.9404 34.6507,12.0844 34.7187,12.7004 C34.7677,13.0914 34.8757,13.3064 35.3047,13.3744 C35.5097,13.4034 35.8417,13.4234 36.0667,13.4234 C36.2327,13.4234 36.3007,13.5114 36.3007,13.5794 C36.3007,13.6774 36.1837,13.7364 36.0177,13.7364 C35.0417,13.7364 34.0357,13.6874 33.6257,13.6874 C33.2937,13.6874 32.2777,13.7364 31.6927,13.7364 C31.5067,13.7364 31.4097,13.6874 31.4097,13.5794 C31.4097,13.5114 31.4577,13.4234 31.6437,13.4234 C31.8587,13.4234 32.0337,13.4034 32.1607,13.3744 C32.4637,13.3064 32.5517,13.1004 32.6007,12.6804 C32.6687,12.0944 32.6687,10.9504 32.6687,9.5624 L32.6687,7.0504" id="Fill-8" fill="#2B2B2B"></path>
                <g id="Group-12" transform="translate(37.000000, 1.921800)">
                    <mask id="mask-4" fill="white">
                        <use xlink:href="#path-3"></use>
                    </mask>
                    <g id="Clip-11"></g>
                    <path d="M2.7374,9.8594 C2.7664,10.9734 2.9524,11.3064 3.2454,11.4134 C3.4994,11.5014 3.7824,11.5114 4.0164,11.5114 C4.1824,11.5114 4.2704,11.5794 4.2704,11.6674 C4.2704,11.7854 4.1334,11.8244 3.9384,11.8244 C2.9814,11.8244 2.2884,11.7754 2.0244,11.7754 C1.8884,11.7754 1.1854,11.8244 0.4234,11.8244 C0.2184,11.8244 0.0914,11.8044 0.0914,11.6674 C0.0914,11.5794 0.1894,11.5114 0.3254,11.5114 C0.5304,11.5114 0.7944,11.4914 0.9994,11.4424 C1.3904,11.3454 1.4384,10.9544 1.4584,9.7124 L1.5954,1.2284 C1.5954,0.9454 1.6924,0.7394 1.8494,0.7394 C2.0344,0.7394 2.2394,0.9544 2.4834,1.2094 C2.6694,1.3944 4.8854,3.6724 7.0434,5.7734 C8.0484,6.7704 10.0214,8.7844 10.2354,8.9894 L10.3044,8.9894 L10.1474,2.6264 C10.1284,1.7464 10.0014,1.5024 9.6404,1.3654 C9.4254,1.2774 9.0644,1.2774 8.8684,1.2774 C8.6834,1.2774 8.6344,1.2094 8.6344,1.1214 C8.6344,1.0034 8.7904,0.9844 9.0054,0.9844 C9.7764,0.9844 10.5674,1.0134 10.8904,1.0134 C11.0554,1.0134 11.6124,0.9844 12.3354,0.9844 C12.5404,0.9844 12.6664,1.0034 12.6664,1.1214 C12.6664,1.2094 12.5794,1.2774 12.4134,1.2774 C12.2564,1.2774 12.1394,1.2774 11.9544,1.3264 C11.5534,1.4434 11.4364,1.6974 11.4174,2.5094 L11.2514,11.5404 C11.2514,11.8634 11.1344,12.0004 11.0164,12.0004 C10.7634,12.0004 10.5584,11.8434 10.4114,11.6974 C9.4844,10.8364 7.6384,9.0674 6.0864,7.5724 C4.4754,6.0184 2.9034,4.2884 2.6204,4.0334 L2.5714,4.0334 L2.7374,9.8594" id="Fill-10" fill="#2B2B2B" mask="url(#mask-4)"></path>
                </g>
                <path d="M52.2542,7.0504 C52.2542,4.8804 52.2542,4.4704 52.2342,4.0204 C52.2052,3.5314 52.0682,3.3854 51.6002,3.2484 C51.4832,3.2184 51.2292,3.1994 51.0142,3.1994 C50.8582,3.1994 50.7602,3.1504 50.7602,3.0424 C50.7602,2.9454 50.8772,2.9064 51.0922,2.9064 C51.8632,2.9064 52.8112,2.9354 53.2302,2.9354 C53.6992,2.9354 56.9802,2.9554 57.2722,2.9354 C57.5462,2.9154 57.7802,2.8674 57.8972,2.8474 C57.9852,2.8274 58.0632,2.7794 58.1322,2.7794 C58.2192,2.7794 58.2292,2.8474 58.2292,2.9154 C58.2292,3.0134 58.1412,3.1894 58.1122,3.8444 C58.0932,4.0004 58.0632,4.6164 58.0242,4.7824 C58.0052,4.8514 57.9752,5.0174 57.8582,5.0174 C57.7612,5.0174 57.7412,4.9484 57.7412,4.8314 C57.7412,4.7334 57.7222,4.4794 57.6432,4.3134 C57.5262,4.0594 57.4092,3.8544 56.6672,3.7954 C56.4132,3.7664 54.6462,3.7274 54.3432,3.7274 C54.2752,3.7274 54.2462,3.7764 54.2462,3.8644 L54.2462,7.4024 C54.2462,7.4904 54.2652,7.5584 54.3432,7.5584 C54.6752,7.5584 56.5992,7.5584 56.9312,7.5294 C57.2822,7.5004 57.5072,7.4614 57.6342,7.3144 C57.7512,7.2164 57.8002,7.1284 57.8682,7.1284 C57.9362,7.1284 57.9852,7.1974 57.9852,7.2854 C57.9852,7.3734 57.9562,7.6074 57.8682,8.3304 C57.8392,8.6144 57.8002,9.1914 57.8002,9.2884 C57.8002,9.4064 57.7802,9.6114 57.6532,9.6114 C57.5562,9.6114 57.5172,9.5624 57.5172,9.4944 C57.4972,9.3374 57.4972,9.1614 57.4682,8.9764 C57.3802,8.6924 57.1942,8.4674 56.6482,8.4184 C56.3742,8.3894 54.6952,8.3504 54.3242,8.3504 C54.2562,8.3504 54.2362,8.4184 54.2362,8.5064 L54.2362,9.6504 C54.2362,10.1394 54.2162,11.3514 54.2362,11.7714 C54.2652,12.7494 54.7242,12.9644 56.2382,12.9644 C56.6282,12.9644 57.2432,12.9444 57.6342,12.7784 C58.0052,12.6124 58.1712,12.3094 58.2682,11.7124 C58.2982,11.5564 58.3372,11.4974 58.4342,11.4974 C58.5512,11.4974 58.5712,11.6834 58.5712,11.8304 C58.5712,12.1524 58.4542,13.1304 58.3662,13.4134 C58.2682,13.7854 58.1322,13.7854 57.5752,13.7854 C56.4622,13.7854 55.5742,13.7654 54.8512,13.7364 C54.1292,13.7164 53.5722,13.7064 53.1332,13.7064 C52.9672,13.7064 52.6452,13.7264 52.2932,13.7264 C51.9422,13.7454 51.5712,13.7554 51.2682,13.7554 C51.0822,13.7554 50.9852,13.7064 50.9852,13.5994 C50.9852,13.5304 51.0342,13.4424 51.2192,13.4424 C51.4342,13.4424 51.6102,13.4234 51.7372,13.3944 C52.0392,13.3254 52.1272,13.0614 52.1762,12.6314 C52.2442,12.0254 52.2442,10.9014 52.2442,9.5824 L52.2542,7.0504" id="Fill-13" fill="#2B2B2B"></path>
                <path d="M60.4263,13.5504 C60.1923,13.4524 60.1433,13.3844 60.1433,13.0614 C60.1433,12.2894 60.2113,11.3904 60.2313,11.1554 C60.2313,10.9404 60.2993,10.7844 60.4163,10.7844 C60.5533,10.7844 60.5723,10.9214 60.5723,11.0184 C60.5723,11.2044 60.6213,11.5074 60.7093,11.7614 C61.0313,12.8274 62.1353,13.1794 63.0623,13.1794 C64.3413,13.1794 65.1123,12.3674 65.1123,11.3614 C65.1123,10.7354 64.9663,10.1094 63.6483,9.3374 L62.7893,8.8294 C61.0413,7.8034 60.4653,6.8454 60.4653,5.5744 C60.4653,3.8244 62.1443,2.6914 64.2043,2.6914 C65.1613,2.6914 65.9233,2.8274 66.3043,2.9254 C66.4403,2.9554 66.5093,3.0134 66.5093,3.1114 C66.5093,3.2974 66.4603,3.6974 66.4603,4.8314 C66.4603,5.1344 66.3913,5.2914 66.2743,5.2914 C66.1773,5.2914 66.1283,5.2034 66.1283,5.0364 C66.1283,4.9004 66.0603,4.4604 65.7373,4.0984 C65.5233,3.8244 65.0443,3.4244 64.0873,3.4244 C63.0233,3.4244 62.0663,3.9814 62.0663,4.9584 C62.0663,5.5944 62.3013,6.1024 63.6283,6.8454 L64.2343,7.1774 C66.1863,8.2524 66.7923,9.3474 66.7923,10.6474 C66.7923,11.7124 66.3913,12.5634 65.3083,13.3254 C64.6053,13.8334 63.6283,13.9124 62.8383,13.9124 C61.9783,13.9214 61.0703,13.8334 60.4263,13.5504" id="Fill-15" fill="#2B2B2B"></path>
                <path d="M68.8034,13.5504 C68.5694,13.4524 68.5204,13.3844 68.5204,13.0614 C68.5204,12.2894 68.5884,11.3904 68.6084,11.1554 C68.6084,10.9404 68.6764,10.7844 68.7934,10.7844 C68.9304,10.7844 68.9404,10.9214 68.9404,11.0184 C68.9404,11.2044 68.9894,11.5074 69.0764,11.7614 C69.3994,12.8274 70.5024,13.1794 71.4294,13.1794 C72.7084,13.1794 73.4804,12.3674 73.4804,11.3614 C73.4804,10.7354 73.3334,10.1094 72.0154,9.3374 L71.1564,8.8294 C69.4084,7.8034 68.8324,6.8454 68.8324,5.5744 C68.8324,3.8244 70.5124,2.6914 72.5724,2.6914 C73.5294,2.6914 74.2904,2.8274 74.6714,2.9254 C74.8084,2.9554 74.8764,3.0134 74.8764,3.1114 C74.8764,3.2974 74.8274,3.6974 74.8274,4.8314 C74.8274,5.1344 74.7594,5.2914 74.6424,5.2914 C74.5444,5.2914 74.4954,5.2034 74.4954,5.0364 C74.4954,4.9004 74.4274,4.4604 74.1054,4.0984 C73.8904,3.8244 73.4114,3.4244 72.4554,3.4244 C71.3904,3.4244 70.4344,3.9814 70.4344,4.9584 C70.4344,5.5944 70.6684,6.1024 71.9964,6.8454 L72.6014,7.1774 C74.5544,8.2524 75.1594,9.3474 75.1594,10.6474 C75.1594,11.7124 74.7594,12.5634 73.6754,13.3254 C72.9724,13.8334 71.9964,13.9124 71.2054,13.9124 C70.3554,13.9214 69.4474,13.8334 68.8034,13.5504" id="Fill-17" fill="#2B2B2B"></path>
                <path d="M82.111,5.8872 C82.111,3.3262 82.111,2.8572 82.082,2.3192 C82.052,1.7432 81.877,1.4592 81.506,1.3812 C81.32,1.3322 81.105,1.3132 80.9,1.3132 C80.734,1.3132 80.627,1.2832 80.627,1.1462 C80.627,1.0492 80.764,1.0102 81.027,1.0102 C81.662,1.0102 82.726,1.0582 83.214,1.0582 C83.634,1.0582 84.63,1.0102 85.265,1.0102 C85.479,1.0102 85.616,1.0392 85.616,1.1462 C85.616,1.2832 85.518,1.3132 85.343,1.3132 C85.177,1.3132 85.04,1.3322 84.835,1.3612 C84.376,1.4492 84.249,1.7332 84.21,2.3192 C84.181,2.8572 84.181,3.3262 84.181,5.8872 L84.181,8.8492 C84.181,10.4812 84.181,11.8102 84.249,12.5342 C84.298,12.9932 84.415,13.2962 84.923,13.3552 C85.157,13.3842 85.528,13.4232 85.782,13.4232 C85.968,13.4232 86.055,13.4722 86.055,13.5602 C86.055,13.6772 85.919,13.7262 85.733,13.7262 C84.62,13.7262 83.566,13.6772 83.107,13.6772 C82.716,13.6772 81.662,13.7262 80.988,13.7262 C80.773,13.7262 80.656,13.6772 80.656,13.5602 C80.656,13.4722 80.725,13.4232 80.93,13.4232 C81.183,13.4232 81.389,13.3942 81.535,13.3552 C81.867,13.2862 81.974,13.0032 82.023,12.5142 C82.111,11.8102 82.111,10.4712 82.111,8.8392 L82.111,5.8872" id="Fill-19" fill="#2B2B2B"></path>
                <g id="Group-23" transform="translate(88.000000, 1.921800)">
                    <mask id="mask-6" fill="white">
                        <use xlink:href="#path-5"></use>
                    </mask>
                    <g id="Clip-22"></g>
                    <path d="M2.6736,9.8594 C2.7026,10.9734 2.8886,11.3064 3.1816,11.4134 C3.4356,11.5014 3.7186,11.5114 3.9526,11.5114 C4.1186,11.5114 4.2066,11.5794 4.2066,11.6674 C4.2066,11.7854 4.0696,11.8144 3.8746,11.8144 C2.9176,11.8144 2.2246,11.7654 1.9606,11.7654 C1.8246,11.7654 1.1216,11.8144 0.3596,11.8144 C0.1546,11.8144 0.0276,11.7944 0.0276,11.6674 C0.0276,11.5794 0.1256,11.5114 0.2616,11.5114 C0.4666,11.5114 0.7306,11.4914 0.9356,11.4424 C1.3266,11.3454 1.3746,10.9544 1.3946,9.7124 L1.5316,1.2284 C1.5316,0.9454 1.6286,0.7394 1.7856,0.7394 C1.9706,0.7394 2.1756,0.9544 2.4196,1.2094 C2.6056,1.3944 4.8216,3.6724 6.9796,5.7734 C7.9846,6.7704 9.9576,8.7844 10.1716,8.9894 L10.2406,8.9894 L10.0936,2.6264 C10.0746,1.7464 9.9376,1.5024 9.5866,1.3654 C9.3716,1.2774 9.0106,1.2774 8.8146,1.2774 C8.6296,1.2774 8.5806,1.2094 8.5806,1.1214 C8.5806,1.0034 8.7366,0.9844 8.9516,0.9844 C9.7226,0.9844 10.5136,1.0134 10.8356,1.0134 C11.0016,1.0134 11.5586,0.9844 12.2806,0.9844 C12.4856,0.9844 12.6126,1.0034 12.6126,1.1214 C12.6126,1.2094 12.5246,1.2774 12.3586,1.2774 C12.2026,1.2774 12.0856,1.2774 11.9006,1.3264 C11.4996,1.4434 11.3826,1.6974 11.3636,2.5094 L11.1976,11.5404 C11.1976,11.8634 11.0796,12.0004 10.9626,12.0004 C10.7086,12.0004 10.5036,11.8534 10.3576,11.6974 C9.4296,10.8364 7.5846,9.0674 6.0326,7.5724 C4.4216,6.0184 2.8496,4.2884 2.5666,4.0334 L2.5076,4.0334 L2.6736,9.8594" id="Fill-21" fill="#2B2B2B" mask="url(#mask-6)"></path>
                </g>
                <path d="M103.7958,13.5504 C103.5618,13.4524 103.5128,13.3844 103.5128,13.0614 C103.5128,12.2894 103.5808,11.3904 103.6008,11.1554 C103.6008,10.9404 103.6688,10.7844 103.7858,10.7844 C103.9228,10.7844 103.9418,10.9214 103.9418,11.0184 C103.9418,11.2044 103.9908,11.5074 104.0788,11.7614 C104.4008,12.8274 105.5048,13.1794 106.4318,13.1794 C107.7108,13.1794 108.4818,12.3674 108.4818,11.3614 C108.4818,10.7354 108.3258,10.1094 107.0178,9.3374 L106.1588,8.8294 C104.4108,7.8034 103.8348,6.8454 103.8348,5.5744 C103.8348,3.8244 105.5138,2.6914 107.5738,2.6914 C108.5308,2.6914 109.2928,2.8274 109.6738,2.9254 C109.8098,2.9554 109.8788,3.0134 109.8788,3.1114 C109.8788,3.2974 109.8298,3.6974 109.8298,4.8314 C109.8298,5.1344 109.7608,5.2914 109.6438,5.2914 C109.5468,5.2914 109.4878,5.2034 109.4878,5.0364 C109.4878,4.9004 109.4198,4.4604 109.0978,4.0984 C108.8828,3.8244 108.4038,3.4244 107.4478,3.4244 C106.3828,3.4244 105.4268,3.9814 105.4268,4.9584 C105.4268,5.5944 105.6608,6.1024 106.9888,6.8454 L107.5938,7.1774 C109.5468,8.2524 110.1518,9.3474 110.1518,10.6474 C110.1518,11.7124 109.7518,12.5634 108.6678,13.3254 C107.9648,13.8334 106.9888,13.9124 106.1978,13.9124 C105.3478,13.9214 104.4398,13.8334 103.7958,13.5504" id="Fill-24" fill="#2B2B2B"></path>
                <path d="M114.0572,7.0504 C114.0572,4.8804 114.0572,4.4704 114.0372,4.0204 C114.0082,3.5314 113.8522,3.3654 113.5302,3.2584 C113.3642,3.2094 113.1782,3.1894 112.9932,3.1894 C112.8372,3.1894 112.7582,3.1604 112.7582,3.0234 C112.7582,2.9354 112.8762,2.9064 113.1102,2.9064 C113.6662,2.9064 114.6722,2.9354 115.0922,2.9354 C115.4632,2.9354 116.4202,2.9064 116.9962,2.9064 C117.1812,2.9064 117.2982,2.9354 117.2982,3.0234 C117.2982,3.1604 117.2112,3.1894 117.0642,3.1894 C116.9182,3.1894 116.7912,3.2094 116.6252,3.2384 C116.2242,3.3064 116.1072,3.5124 116.0682,4.0104 C116.0392,4.4704 116.0392,4.8704 116.0392,7.0404 L116.0392,9.5624 C116.0392,10.9404 116.0392,12.0844 116.1072,12.6904 C116.1562,13.0814 116.2642,13.2964 116.6932,13.3644 C116.8982,13.3944 117.2302,13.4134 117.4552,13.4134 C117.6212,13.4134 117.6892,13.5014 117.6892,13.5704 C117.6892,13.6674 117.5722,13.7164 117.4062,13.7164 C116.4302,13.7164 115.4242,13.6674 115.0142,13.6674 C114.6822,13.6674 113.6662,13.7164 113.0812,13.7164 C112.8952,13.7164 112.7982,13.6674 112.7982,13.5704 C112.7982,13.5014 112.8462,13.4134 113.0322,13.4134 C113.2472,13.4134 113.4222,13.3944 113.5492,13.3644 C113.8522,13.2964 113.9402,13.0914 113.9892,12.6704 C114.0572,12.0844 114.0572,10.9404 114.0572,9.5524 L114.0572,7.0504" id="Fill-26" fill="#2B2B2B"></path>
                <path d="M121.6141,7.0504 C121.6141,4.8804 121.6141,4.4704 121.5941,4.0204 C121.5651,3.5314 121.4281,3.3854 120.9601,3.2484 C120.8431,3.2184 120.5891,3.1994 120.3741,3.1994 C120.2181,3.1994 120.1201,3.1504 120.1201,3.0424 C120.1201,2.9454 120.2371,2.9064 120.4521,2.9064 C121.2231,2.9064 122.1711,2.9354 122.5901,2.9354 C123.0491,2.9354 124.1041,2.9064 124.9921,2.9064 C126.8471,2.9064 129.3371,2.9064 130.9481,4.5384 C131.6901,5.2814 132.3441,6.4734 132.3441,8.1744 C132.3441,9.9734 131.5731,11.3414 130.7331,12.1624 C130.0591,12.8364 128.4971,13.8434 125.7731,13.8434 C125.2361,13.8434 124.5921,13.7944 124.0061,13.7554 C123.4201,13.7064 122.8831,13.6674 122.5121,13.6674 C122.3461,13.6674 122.0241,13.6874 121.6731,13.6874 C121.3211,13.7064 120.9501,13.7164 120.6471,13.7164 C120.4621,13.7164 120.3641,13.6674 120.3641,13.5704 C120.3641,13.5014 120.4131,13.4134 120.5991,13.4134 C120.8131,13.4134 120.9891,13.3944 121.1161,13.3644 C121.4191,13.2964 121.5071,13.0324 121.5551,12.6024 C121.6241,11.9964 121.6241,10.8724 121.6241,9.5524 L121.6141,7.0504 Z M123.5961,8.6334 C123.5961,10.1484 123.6161,11.2434 123.6251,11.5274 C123.6451,11.8794 123.6741,12.3874 123.7911,12.5334 C123.9771,12.8074 124.5631,13.1104 125.7241,13.1104 C127.0721,13.1104 128.0681,12.8764 128.9561,12.1334 C129.9131,11.3414 130.2161,10.0614 130.2161,8.5754 C130.2161,6.7574 129.4931,5.5744 128.8391,5.0074 C127.4721,3.7954 125.8611,3.6394 124.6991,3.6394 C124.3971,3.6394 123.9081,3.6684 123.7911,3.7364 C123.6551,3.7854 123.6061,3.8544 123.6061,4.0204 C123.5861,4.5094 123.5861,5.6914 123.5861,6.8154 L123.5961,8.6334 Z" id="Fill-28" fill="#2B2B2B"></path>
                <path d="M136.1325,7.0504 C136.1325,4.8804 136.1325,4.4704 136.1125,4.0204 C136.0835,3.5314 135.9465,3.3854 135.4785,3.2484 C135.3615,3.2184 135.1075,3.1994 134.8925,3.1994 C134.7465,3.1994 134.6385,3.1504 134.6385,3.0424 C134.6385,2.9454 134.7555,2.9064 134.9705,2.9064 C135.7415,2.9064 136.6895,2.9354 137.1085,2.9354 C137.5775,2.9354 140.8585,2.9554 141.1505,2.9354 C141.4245,2.9154 141.6585,2.8674 141.7755,2.8474 C141.8635,2.8274 141.9415,2.7794 142.0105,2.7794 C142.0975,2.7794 142.1075,2.8474 142.1075,2.9154 C142.1075,3.0134 142.0195,3.1894 141.9905,3.8444 C141.9715,4.0004 141.9415,4.6164 141.9025,4.7824 C141.8835,4.8514 141.8535,5.0174 141.7365,5.0174 C141.6395,5.0174 141.6195,4.9484 141.6195,4.8314 C141.6195,4.7334 141.6005,4.4794 141.5215,4.3134 C141.4045,4.0594 141.2875,3.8544 140.5455,3.7954 C140.2915,3.7664 138.5245,3.7274 138.2215,3.7274 C138.1535,3.7274 138.1245,3.7764 138.1245,3.8644 L138.1245,7.4024 C138.1245,7.4904 138.1435,7.5584 138.2215,7.5584 C138.5535,7.5584 140.4775,7.5584 140.8095,7.5294 C141.1605,7.5004 141.3855,7.4614 141.5125,7.3144 C141.6295,7.2164 141.6785,7.1284 141.7465,7.1284 C141.8145,7.1284 141.8635,7.1974 141.8635,7.2854 C141.8635,7.3734 141.8345,7.6074 141.7465,8.3304 C141.7175,8.6144 141.6785,9.1914 141.6785,9.2884 C141.6785,9.4064 141.6585,9.6114 141.5315,9.6114 C141.4345,9.6114 141.3955,9.5624 141.3955,9.4944 C141.3755,9.3474 141.3755,9.1614 141.3465,8.9764 C141.2585,8.6924 141.0725,8.4674 140.5265,8.4184 C140.2525,8.3894 138.5735,8.3504 138.2025,8.3504 C138.1345,8.3504 138.1145,8.4184 138.1145,8.5064 L138.1145,9.6504 C138.1145,10.1394 138.0945,11.3514 138.1145,11.7714 C138.1435,12.7494 138.6025,12.9644 140.1165,12.9644 C140.5065,12.9644 141.1215,12.9444 141.5125,12.7784 C141.8835,12.6124 142.0495,12.3094 142.1465,11.7124 C142.1765,11.5564 142.2155,11.4974 142.3125,11.4974 C142.4295,11.4974 142.4495,11.6834 142.4495,11.8304 C142.4495,12.1524 142.3325,13.1304 142.2445,13.4134 C142.1465,13.7854 142.0105,13.7854 141.4535,13.7854 C140.3405,13.7854 139.4525,13.7654 138.7295,13.7364 C138.0075,13.7164 137.4505,13.7064 137.0115,13.7064 C136.8455,13.7064 136.5235,13.7264 136.1715,13.7264 C135.8205,13.7454 135.4495,13.7554 135.1465,13.7554 C134.9605,13.7554 134.8635,13.7064 134.8635,13.6094 C134.8635,13.5404 134.9125,13.4524 135.0975,13.4524 C135.3125,13.4524 135.4885,13.4334 135.6155,13.4034 C135.9175,13.3354 136.0055,13.0714 136.0545,12.6414 C136.1225,12.0354 136.1225,10.9114 136.1225,9.5914 L136.1325,7.0504" id="Fill-30" fill="#2B2B2B"></path>
                <g id="Group-34" transform="translate(144.000000, 1.921800)">
                    <mask id="mask-8" fill="white">
                        <use xlink:href="#path-7"></use>
                    </mask>
                    <g id="Clip-33"></g>
                    <path d="M2.1889,5.1286 C2.1889,2.9586 2.1889,2.5486 2.1689,2.0986 C2.1399,1.6096 2.0029,1.4636 1.5349,1.3266 C1.4179,1.2966 1.1639,1.2776 0.9489,1.2776 C0.7929,1.2776 0.6949,1.2286 0.6949,1.1206 C0.6949,1.0236 0.8119,0.9846 1.0269,0.9846 C1.7979,0.9846 2.7459,1.0136 3.0479,1.0136 C3.5559,1.0136 4.9029,0.9846 5.3519,0.9846 C6.2989,0.9846 7.3729,1.0726 8.1639,1.5906 C8.5839,1.8736 9.2089,2.5966 9.2089,3.5646 C9.2089,4.6306 8.6039,5.5686 7.1589,6.7316 C8.4669,8.3446 9.5119,9.6446 10.4099,10.5336 C11.2299,11.3546 11.7569,11.4236 11.9919,11.4726 C12.1479,11.5016 12.2259,11.5016 12.3429,11.5016 C12.4599,11.5016 12.5289,11.5896 12.5289,11.6576 C12.5289,11.7756 12.4309,11.8046 12.2449,11.8046 L10.8299,11.8046 C10.0099,11.8046 9.5989,11.7166 9.2189,11.5206 C8.5839,11.1986 8.0279,10.5236 7.1979,9.4196 C6.6119,8.6476 5.9869,7.6896 5.8009,7.4646 C5.7139,7.3766 5.6359,7.3666 5.5279,7.3666 L4.1999,7.3376 C4.1319,7.3376 4.0829,7.3666 4.0829,7.4546 L4.0829,7.6606 C4.0829,8.9896 4.1029,10.1036 4.1709,10.7096 C4.2199,11.1306 4.2879,11.4036 4.7469,11.4726 C4.9619,11.5016 5.2839,11.5206 5.4699,11.5206 C5.5869,11.5206 5.6549,11.6086 5.6549,11.6776 C5.6549,11.7756 5.5379,11.8236 5.3519,11.8236 C4.4929,11.8236 3.2629,11.7756 3.0479,11.7756 C2.7649,11.7756 1.8179,11.8236 1.2319,11.8236 C1.0469,11.8236 0.9489,11.7756 0.9489,11.6776 C0.9489,11.6086 0.9979,11.5206 1.1829,11.5206 C1.3979,11.5206 1.5739,11.5016 1.7009,11.4726 C2.0029,11.4036 2.0909,11.1396 2.1399,10.7096 C2.2089,10.1036 2.2089,8.9796 2.2089,7.6606 L2.1889,5.1286 Z M4.0729,6.2336 C4.0729,6.3796 4.1029,6.4386 4.2099,6.4876 C4.5319,6.5846 4.9719,6.6236 5.3329,6.6236 C5.9189,6.6236 6.1239,6.5756 6.3779,6.3896 C6.8359,6.0666 7.3339,5.4516 7.3339,4.2686 C7.3339,2.2456 5.9579,1.7266 5.0789,1.7266 C4.7079,1.7266 4.3559,1.7466 4.1999,1.7756 C4.1029,1.8056 4.0639,1.8636 4.0639,1.9816 L4.0639,6.2336 L4.0729,6.2336 Z" id="Fill-32" fill="#2B2B2B" mask="url(#mask-8)"></path>
                </g>
            </g>
        </g>
    </g>
</svg>