<svg width="17px" height="15px" viewBox="0 0 17 15" version="1.1" xmlns="http://www.w3.org/2000/svg" xmlns:xlink="http://www.w3.org/1999/xlink">
    <path d="M4.75132264,14.9278508 C5.49682489,14.9278508 6.10315502,14.3379299 6.10315502,13.6126032 C6.10315502,12.8872766 5.49682489,12.2973556 4.75132264,12.2973556 C4.00582039,12.2973556 3.39949025,12.8872425 3.39949025,13.6125691 C3.39949025,14.3378957 4.00582039,14.9278508 4.75132264,14.9278508 Z" id="Shape"/>
    <path d="M13.2003715,14.9278508 L13.2997601,14.9278508 C13.6576012,14.8988378 13.9856222,14.7441128 14.2241829,14.4733014 C14.4627436,14.2121838 14.5720957,13.8736867 14.5522039,13.5158703 C14.5024921,12.8002033 13.8564135,12.248955 13.1109112,12.2973215 C12.365409,12.345688 11.8087556,12.9839754 11.8584675,13.6996083 C11.9081442,14.3862622 12.4946177,14.9278508 13.2003715,14.9278508 Z" id="Shape"/>
    <path d="M0.596401799,1.85261788 L2.30607526,1.85261788 L4.7413943,10.4211319 C4.81096282,10.6725898 5.04952354,10.8466682 5.31790435,10.8466682 L12.8027469,10.8466682 C13.0413076,10.8466682 13.2500483,10.7112625 13.3494369,10.4985114 L16.0729934,4.40576765 C16.1525253,4.22202962 16.1326336,4.01893816 16.0232816,3.85451941 C15.9139295,3.69010066 15.7250807,3.59340182 15.5262684,3.59340182 L7.25621019,3.59340182 C6.92818921,3.59340182 6.6598084,3.85451941 6.6598084,4.17366313 C6.6598084,4.49280685 6.92818921,4.75392444 7.25621019,4.75392444 L14.6118441,4.75392444 L12.4051574,9.6861456 L5.7652057,9.6861456 L3.32992174,1.11763159 C3.26035322,0.866173647 3.0217925,0.692095254 2.75341169,0.692095254 L0.596401799,0.692095254 C0.26838081,0.692095254 0,0.953212844 0,1.27235657 C0,1.59150029 0.26838081,1.85261788 0.596401799,1.85261788 Z" id="Shape"/>
  </svg>