<svg version="1.1" id="Layer_1" xmlns:cc="http://creativecommons.org/ns#" xmlns:dc="http://purl.org/dc/elements/1.1/" xmlns:inkscape="http://www.inkscape.org/namespaces/inkscape" xmlns:rdf="http://www.w3.org/1999/02/22-rdf-syntax-ns#" xmlns:sodipodi="http://sodipodi.sourceforge.net/DTD/sodipodi-0.dtd" xmlns:svg="http://www.w3.org/2000/svg" xmlns="http://www.w3.org/2000/svg" xmlns:xlink="http://www.w3.org/1999/xlink" x="0px" y="0px" viewBox="0 0 62 66" style="enable-background:new 0 0 62 66;" xml:space="preserve">
  <g transform="translate(0,-952.36218)">
    <path d="M31,952.4c-10.5,0-19,8.5-19,19c0,5.7,2.6,10.8,6.6,14.3c-11,4.9-18.6,16.8-18.6,30.7c0,1.1,0.9,2,2,2h58c1.1,0,2-0.9,2-2&#10;      c0-13.9-7.6-25.8-18.6-30.7c4-3.5,6.6-8.6,6.6-14.3C50,960.9,41.5,952.4,31,952.4z M31,956.4c8.3,0,15,6.7,15,15&#10;      c0,5.7-3.1,10.6-7.7,13.1c0,0,0,0,0,0c0,0,0,0,0,0c0,0,0,0-0.1,0c-2.1,1.2-4.6,1.8-7.2,1.8s-5-0.7-7.2-1.8c0,0-0.1,0-0.1,0&#10;      C19.1,982,16,977,16,971.4C16,963.1,22.7,956.4,31,956.4z M22.7,988.4c2.5,1.2,5.3,1.9,8.3,1.9s5.8-0.7,8.3-1.9&#10;      c10.1,3.2,17.7,13.4,18.5,25.9H4.2C4.9,1001.8,12.5,991.6,22.7,988.4z"/>
  </g>
  </svg>