<?xml version="1.0" encoding="utf-8"?>
<!-- Generator: Adobe Illustrator 21.1.0, SVG Export Plug-In . SVG Version: 6.00 Build 0)  -->
<svg version="1.1" id="Layer_1" xmlns="http://www.w3.org/2000/svg" xmlns:xlink="http://www.w3.org/1999/xlink" x="0px" y="0px"
	 viewBox="0 0 35 38" style="enable-background:new 0 0 35 38;" xml:space="preserve">
<style type="text/css">
	.st0{clip-path:url(#SVGID_2_);fill:#FFFFFF;}
</style>
<title>D07EF483-CC61-4CCA-AB21-64EB31EF607E</title>
<desc>Created with sketchtool.</desc>
<g>
	<defs>
		<path id="SVGID_1_" d="M26.9,38c-0.1,0-0.1,0-0.2,0c-0.3-0.1-0.5-0.3-0.6-0.6l-4.8-15.2l-4.8,5v7c0,0.2-0.1,0.5-0.3,0.6l-2.6,2.8
			c-0.2,0.2-0.5,0.3-0.8,0.3c-0.3,0-0.5-0.2-0.7-0.5l-3.7-7.8l-7.5-3.9c-0.3-0.1-0.4-0.4-0.5-0.7c0-0.3,0-0.6,0.2-0.8l2.6-2.8
			c0.2-0.2,0.4-0.3,0.6-0.3h6.7l4.8-5L0.9,11.1c-0.3-0.1-0.5-0.4-0.6-0.7c-0.1-0.3,0-0.6,0.2-0.9l2.8-2.9C3.5,6.5,3.8,6.4,4,6.4
			l19,1.8l3-3.1c0.5-0.5,2.9-2.8,5.2-2.8c0.9,0,1.7,0.3,2.3,1c2,2.1,0.5,5.4-1.8,7.8l-3,3.1l1.7,19.9c0,0.3-0.1,0.5-0.3,0.7
			l-2.8,2.9C27.4,37.9,27.1,38,26.9,38z M2.8,24.6l6.6,3.5c0.2,0.1,0.3,0.2,0.4,0.4l3.3,6.9l1.5-1.6v-7c0-0.2,0.1-0.5,0.3-0.6
			l6.1-6.4c0.2-0.2,0.5-0.3,0.8-0.2c0.3,0.1,0.5,0.3,0.6,0.6l4.8,15.2l1.5-1.5L27,14c0-0.3,0.1-0.5,0.3-0.7l3.3-3.5
			c1.4-1.4,3-4,1.8-5.2c-0.3-0.3-0.7-0.5-1.1-0.5c-1.4,0-3.1,1.4-3.9,2.3l-3.3,3.5c-0.2,0.2-0.4,0.3-0.7,0.3l-19-1.8L2.8,9.8
			l14.6,5.1c0.3,0.1,0.5,0.4,0.6,0.7c0.1,0.3,0,0.6-0.2,0.9l-6.1,6.4c-0.2,0.2-0.4,0.3-0.6,0.3H4.3L2.8,24.6z"/>
	</defs>
	<clipPath id="SVGID_2_">
		<use xlink:href="#SVGID_1_"  style="overflow:visible;"/>
	</clipPath>
	<rect x="-3.5" y="-1.6" class="st0" width="41.9" height="43.4"/>
</g>
</svg>
