<?xml version="1.0" encoding="utf-8"?>
<!-- Generator: Adobe Illustrator 21.1.0, SVG Export Plug-In . SVG Version: 6.00 Build 0)  -->
<svg version="1.1" id="Layer_1" xmlns="http://www.w3.org/2000/svg" xmlns:xlink="http://www.w3.org/1999/xlink" x="0px" y="0px"
	 viewBox="0 0 35 38" style="enable-background:new 0 0 35 38;" xml:space="preserve">
<style type="text/css">
	.st0{clip-path:url(#SVGID_2_);enable-background:new    ;}
	.st1{clip-path:url(#SVGID_4_);}
	.st2{clip-path:url(#SVGID_6_);}
	.st3{clip-path:url(#SVGID_8_);fill:#FCFCFC;}
</style>
<title>D07EF483-CC61-4CCA-AB21-64EB31EF607E</title>
<desc>Created with sketchtool.</desc>
<g>
	<defs>
		<rect id="SVGID_1_" x="0.7" y="4.5" width="33.2" height="32.4"/>
	</defs>
	<clipPath id="SVGID_2_">
		<use xlink:href="#SVGID_1_"  style="overflow:visible;"/>
	</clipPath>
	<g class="st0">
		<g>
			<defs>
				<rect id="SVGID_3_" x="0" y="3.8" width="34.6" height="33.9"/>
			</defs>
			<clipPath id="SVGID_4_">
				<use xlink:href="#SVGID_3_"  style="overflow:visible;"/>
			</clipPath>
			<g class="st1">
				<defs>
					<path id="SVGID_5_" d="M33.6,20.2l-2.7-1.9c-0.4-0.3-0.5-0.9-0.3-1.3l1.6-2.9c0.2-0.4,0-0.8-0.4-0.9l-3.3-0.5
						c-0.5-0.1-0.9-0.5-0.8-1l0.2-3.3c0-0.5-0.3-0.8-0.8-0.6l-3.2,1c-0.5,0.1-1-0.1-1.2-0.6l-1.2-3.1c-0.2-0.5-0.6-0.6-1-0.2
						l-2.5,2.3c-0.4,0.3-1,0.3-1.3,0l-2.5-2.3c-0.4-0.3-0.8-0.2-1,0.2L11.9,8c-0.2,0.5-0.7,0.7-1.2,0.6l-3.2-1
						C7,7.5,6.7,7.8,6.7,8.3l0.2,3.3c0,0.5-0.3,1-0.8,1l-3.3,0.5c-0.5,0.1-0.7,0.5-0.4,0.9L4,17c0.2,0.4,0.1,1-0.3,1.3L1,20.2
						c-0.4,0.3-0.4,0.7,0,1l2.7,1.9C4.1,23.4,4.3,24,4,24.4l-1.6,2.9c-0.2,0.4,0,0.8,0.4,0.9l3.3,0.5c0.5,0.1,0.9,0.5,0.8,1
						l-0.2,3.3c0,0.5,0.3,0.8,0.8,0.6l3.2-1c0.5-0.1,1,0.1,1.2,0.6l1.2,3.1c0.2,0.5,0.6,0.6,1,0.2l2.5-2.3c0.4-0.3,1-0.3,1.3,0
						l2.5,2.3c0.4,0.3,0.8,0.2,1-0.2l1.2-3.1c0.2-0.5,0.7-0.7,1.2-0.6l3.2,1c0.5,0.1,0.8-0.1,0.8-0.6l-0.2-3.3c0-0.5,0.3-1,0.8-1
						l3.3-0.5c0.5-0.1,0.7-0.5,0.4-0.9l-1.6-2.9c-0.2-0.4-0.1-1,0.3-1.3l2.7-1.9C34,20.9,34,20.4,33.6,20.2 M31.1,21.2l-2.1,1.5
						c-0.4,0.3-0.5,0.9-0.3,1.3l1.3,2.2c0.2,0.4,0,0.8-0.4,0.9l-2.5,0.4c-0.5,0.1-0.9,0.5-0.8,1l0.2,2.6c0,0.5-0.3,0.8-0.8,0.6
						L23,31c-0.5-0.1-1,0.1-1.2,0.6l-1,2.4c-0.2,0.5-0.6,0.6-1,0.2l-1.9-1.7c-0.4-0.3-1-0.3-1.3,0l-1.9,1.7c-0.4,0.3-0.8,0.2-1-0.2
						l-1-2.4c-0.2-0.5-0.7-0.7-1.2-0.6l-2.5,0.7c-0.5,0.1-0.8-0.1-0.8-0.6l0.2-2.6c0-0.5-0.3-1-0.8-1l-2.5-0.4
						c-0.5-0.1-0.7-0.5-0.4-0.9L5.9,24c0.2-0.4,0.1-1-0.3-1.3l-2.1-1.5c-0.4-0.3-0.4-0.7,0-1l2.1-1.5c0.4-0.3,0.5-0.9,0.3-1.3
						l-1.3-2.2c-0.2-0.4,0-0.8,0.4-0.9l2.5-0.4c0.5-0.1,0.9-0.5,0.8-1l-0.2-2.6c0-0.5,0.3-0.8,0.8-0.6l2.5,0.7
						c0.5,0.1,1-0.1,1.2-0.6l1-2.4c0.2-0.5,0.6-0.6,1-0.2l1.9,1.7c0.4,0.3,1,0.3,1.3,0l1.9-1.7c0.4-0.3,0.8-0.2,1,0.2l1,2.4
						c0.2,0.5,0.7,0.7,1.2,0.6l2.5-0.7c0.5-0.1,0.8,0.1,0.8,0.6l-0.2,2.6c0,0.5,0.3,1,0.8,1l2.5,0.4c0.5,0.1,0.7,0.5,0.4,0.9
						l-1.3,2.2c-0.2,0.4-0.1,1,0.3,1.3l2.1,1.5C31.5,20.4,31.5,20.9,31.1,21.2"/>
				</defs>
				<clipPath id="SVGID_6_">
					<use xlink:href="#SVGID_5_"  style="overflow:visible;"/>
				</clipPath>
				<g class="st2">
					<defs>
						<rect id="SVGID_7_" x="0.7" y="4.5" width="33.2" height="32.5"/>
					</defs>
					<clipPath id="SVGID_8_">
						<use xlink:href="#SVGID_7_"  style="overflow:visible;"/>
					</clipPath>
					<rect x="-2.8" y="1" class="st3" width="40.1" height="39.3"/>
				</g>
			</g>
		</g>
	</g>
</g>
</svg>
