<?xml version="1.0" encoding="utf-8"?>
<!-- Generator: Adobe Illustrator 21.1.0, SVG Export Plug-In . SVG Version: 6.00 Build 0)  -->
<svg version="1.1" id="Layer_1" xmlns="http://www.w3.org/2000/svg" xmlns:xlink="http://www.w3.org/1999/xlink" x="0px" y="0px"
	 viewBox="0 0 35 38" style="enable-background:new 0 0 35 38;" xml:space="preserve">
<style type="text/css">
	.st0{clip-path:url(#SVGID_2_);fill:#FCFCFC;}
</style>
<title>D07EF483-CC61-4CCA-AB21-64EB31EF607E</title>
<desc>Created with sketchtool.</desc>
<g>
	<defs>
		<path id="SVGID_1_" d="M32.5,13.5c-1.8-4.1-5.1-7.2-9.3-8.8C19.2,3,14.6,3.2,10.5,5c-5.7,2.6-9.4,8.1-9.8,14.4
			c-0.1,0.3,0,0.6,0.1,0.9c0,0,0,0.1,0.1,0.1v0.1c0.3,0.5,0.8,0.8,1.4,0.8c0.9,0.1,1.7-0.7,1.8-1.6c0.3-5,3.2-9.4,7.8-11.4
			c6.6-3.1,14.5-0.1,17.5,6.7c3,6.7,0,14.7-6.6,17.7c-2.7,1.2-5.8,1.5-8.6,0.8l0.2-0.3c0.2-0.3,0.2-0.8-0.1-1.1
			c-0.2-0.3-0.5-0.5-0.9-0.5l-4.7,0.1c-0.4,0-0.7,0.2-0.9,0.6c-0.2,0.3-0.2,0.7,0,1l2.5,4.1c0.2,0.3,0.6,0.6,1,0.5
			c0.4,0,0.7-0.2,0.9-0.5l0.4-0.7c1.6,0.5,3.4,0.8,5,0.7c2.3,0,4.5-0.5,6.6-1.4c4.1-1.9,7.2-5.2,8.7-9.4
			C34.6,22.2,34.4,17.6,32.5,13.5"/>
	</defs>
	<clipPath id="SVGID_2_">
		<use xlink:href="#SVGID_1_"  style="overflow:visible;"/>
	</clipPath>
	<rect x="-3.1" y="-0.3" class="st0" width="40.9" height="41.8"/>
</g>
</svg>
