<?xml version="1.0" encoding="utf-8"?>
<!-- Generator: Adobe Illustrator 21.1.0, SVG Export Plug-In . SVG Version: 6.00 Build 0)  -->
<svg version="1.1" id="Layer_1" xmlns="http://www.w3.org/2000/svg" xmlns:xlink="http://www.w3.org/1999/xlink" x="0px" y="0px"
	 viewBox="0 0 35 38" style="enable-background:new 0 0 35 38;" xml:space="preserve">
<style type="text/css">
	.st0{clip-path:url(#SVGID_2_);fill:#FFFFFF;}
</style>
<title>D07EF483-CC61-4CCA-AB21-64EB31EF607E</title>
<desc>Created with sketchtool.</desc>
<g>
	<defs>
		<path id="SVGID_1_" d="M30.1,4.3c-0.4-0.3-1-0.3-1.4-0.1c-6.4,3-9.1-0.8-9.2-1c-0.3-0.4-0.7-0.7-1.2-0.7c-0.5,0-1,0.3-1.2,0.7
			c-0.1,0.2-2.8,4-9.2,1C7.4,4,6.9,4,6.4,4.3C6,4.6,5.7,5,5.7,5.6V20c0,0.1,0,0.2,0,0.3c0.1,0.5,2.3,12.3,11.9,16.6
			c0.2,0.1,0.4,0.1,0.6,0.1c0.2,0,0.4,0,0.6-0.1c9.6-4.2,11.8-16.1,11.9-16.6c0-0.1,0-0.2,0-0.3V5.6C30.8,5,30.6,4.6,30.1,4.3z
			 M27.9,19.9c-0.2,1.1-2.4,10.4-9.6,14c-7.2-3.6-9.4-12.9-9.6-14V7.7c4.5,1.4,7.8,0.1,9.6-1.5c1.8,1.6,5.1,2.9,9.6,1.5V19.9z"/>
	</defs>
	<clipPath id="SVGID_2_">
		<use xlink:href="#SVGID_1_"  style="overflow:visible;"/>
	</clipPath>
	<rect x="1.4" y="-1.8" class="st0" width="33.7" height="43.1"/>
</g>
</svg>
