<?xml version="1.0" encoding="UTF-8" standalone="no"?>
<svg width="41px" height="27px" viewBox="0 0 41 27" version="1.1" xmlns="http://www.w3.org/2000/svg" xmlns:xlink="http://www.w3.org/1999/xlink">
    <!-- Generator: sketchtool 3.8.3 (29802) - http://www.bohemiancoding.com/sketch -->
    <title>A7DFBE06-07E8-47F3-9FF8-DBA386FBAE78</title>
    <desc>Created with sketchtool.</desc>
    <defs></defs>
    <g id="Symbols" stroke="none" stroke-width="1" fill="none" fill-rule="evenodd">
        <g id="Value-Proposition-Bar" transform="translate(-520.000000, -48.000000)" fill="#FFFFFF">
            <g id="Returns">
                <g transform="translate(360.000000, 0.000000)">
                    <g id="Group-6" transform="translate(111.000000, 48.000000)">
                        <g id="truck" transform="translate(49.000000, 0.000000)">
                            <g id="Group">
                                <path d="M37.5914967,10.9256699 C36.8483105,9.57077557 35.4267492,8.72923071 33.8815615,8.72923071 L28.3761878,8.72923071 L28.3761878,1.46695896 C28.3761878,0.915065415 27.9287915,0.467669045 27.3768979,0.467669045 L1.15438487,0.467669045 C0.602491326,0.467669045 0.155094956,0.915065415 0.155094956,1.46695896 L0.155094956,22.6837433 C0.155094956,23.2356369 0.602491326,23.6830332 1.15438487,23.6830332 L3.13398188,23.6830332 C3.56524685,25.1280064 4.90558014,26.1846842 6.48888363,26.1846842 C8.07218712,26.1846842 9.4125204,25.1280064 9.84378537,23.6830332 L27.3767552,23.6830332 L29.5043861,23.6830332 C29.9356511,25.1280064 31.2759844,26.1846842 32.8592879,26.1846842 C34.4425914,26.1846842 35.7829247,25.1280064 36.2141896,23.6830332 L39.3481056,23.6830332 C39.8999991,23.6830332 40.3473955,23.2356369 40.3473955,22.6837433 L40.3473955,16.2060606 C40.3475382,16.0381799 40.3051398,15.8728688 40.2243401,15.7255449 L37.5914967,10.9256699 Z M1.15367478,1.46624887 L26.3774652,1.46624887 L26.3774652,21.6844534 L9.84378537,21.6844534 C9.4125204,20.2394802 8.07218712,19.1826597 6.48888363,19.1826597 C4.90558014,19.1826597 3.56524685,20.2394802 3.13398188,21.6844534 L1.15367478,21.6844534 L1.15367478,1.46624887 L1.15367478,1.46624887 Z M7.99124463,22.6838861 C7.99124463,23.5122974 7.31715221,24.1862471 6.48888363,24.1862471 C5.66061504,24.1862471 4.98652262,23.5122974 4.98652262,22.6838861 C4.98652262,21.8554747 5.66061504,21.1813823 6.48888363,21.1813823 C7.31715221,21.1813823 7.99124463,21.8554747 7.99124463,22.6838861 L7.99124463,22.6838861 Z M34.3617917,22.6838861 C34.3617917,23.5122974 33.6876992,24.1862471 32.8594306,24.1862471 C32.0311621,24.1862471 31.3570696,23.5122974 31.3570696,22.6838861 C31.3570696,21.8554747 32.0311621,21.1813823 32.8594306,21.1813823 C33.6876992,21.1813823 34.3617917,21.8554747 34.3617917,22.6838861 L34.3617917,22.6838861 Z M38.3489584,21.6845962 L36.2143324,21.6845962 C35.7830674,20.239623 34.4427341,19.1828025 32.8594306,19.1828025 C31.2761272,19.1828025 29.9357939,20.239623 29.5045289,21.6845962 L28.3761878,21.6845962 L28.3761878,10.7278105 L33.8815615,10.7278105 C34.696982,10.7278105 35.4470205,11.1719235 35.8391704,11.8869868 L38.3489584,16.4623071 L38.3489584,21.6845962 L38.3489584,21.6845962 Z" id="Shape"></path>
                                <path d="M13.8311958,8.02701364 L17.929756,8.02701364 L17.1553065,8.80146309 C16.9304743,9.02629529 16.9304743,9.3909792 17.1553065,9.6158114 C17.2677638,9.72826864 17.4151839,9.78445612 17.5625218,9.78445612 C17.7098597,9.78445612 17.8572799,9.72818637 17.9697371,9.6158114 L19.5708747,8.01467379 C19.8815923,7.70395618 19.8815923,7.19826883 19.5708747,6.88755122 L17.9697371,5.2864136 C17.7448227,5.0615814 17.380221,5.0615814 17.1553065,5.2864136 C16.9304743,5.5112458 16.9304743,5.87592972 17.1553065,6.10076192 L17.929756,6.87521136 L13.8311958,6.87521136 C13.5131565,6.87521136 13.2553358,7.13303212 13.2553358,7.45107137 C13.2553358,7.76911063 13.5131565,8.02701364 13.8311958,8.02701364 L13.8311958,8.02701364 Z" id="Shape"></path>
                                <path d="M9.23447552,15.6313523 C9.34693474,15.7438115 9.49427523,15.8 9.64169799,15.8 C9.78903849,15.8 9.93646125,15.7437293 10.0488382,15.6313523 C10.2737566,15.4065161 10.2737566,15.0418258 10.0489205,14.8169896 L9.27445737,14.0425265 L13.3730898,14.0425265 C13.6911347,14.0425265 13.94896,13.7847012 13.94896,13.4666564 C13.94896,13.1486115 13.6911347,12.8907862 13.3730898,12.8907862 L9.27453963,12.8907862 L10.0490027,12.1163231 C10.2738389,11.891487 10.2738389,11.5267966 10.0490027,11.3019605 C9.8240843,11.0771243 9.45947622,11.0771243 9.23455779,11.3019605 L7.63339195,12.9031263 C7.4829253,13.0536752 7.4,13.2538312 7.4,13.4667387 C7.4,13.6796461 7.4829253,13.8798021 7.63339195,14.0302687 L9.23447552,15.6313523 L9.23447552,15.6313523 Z" id="Shape"></path>
                            </g>
                        </g>
                    </g>
                </g>
            </g>
        </g>
    </g>
</svg>