<?xml version="1.0" encoding="UTF-8" standalone="no"?>
<svg width="28px" height="38px" viewBox="0 0 28 38" version="1.1" xmlns="http://www.w3.org/2000/svg" xmlns:xlink="http://www.w3.org/1999/xlink">
    <!-- Generator: Sketch 39.1 (31720) - http://www.bohemiancoding.com/sketch -->
    <title>lock</title>
    <desc>Created with Sketch.</desc>
    <defs></defs>
    <g id="Symbols" stroke="none" stroke-width="1" fill="none" fill-rule="evenodd">
        <g id="Value-Proposition-Bar" transform="translate(-1246.000000, -36.000000)" fill="#FFFFFF">
            <g id="Secure-Checkout">
                <g transform="translate(1080.000000, 0.000000)">
                    <g id="Group-5" transform="translate(131.000000, 36.000000)">
                        <g id="lock" transform="translate(35.000000, 0.000000)">
                            <g id="Layer_1">
                                <g id="Group">
                                    <path d="M21.5463918,13.7113402 L21.5463918,8.03092784 C21.5463918,3.60263505 17.9437567,0 13.5154639,0 C9.08717113,0 5.48453608,3.60263505 5.48453608,8.03092784 L5.48453608,13.7113402 L0,13.7113402 L0,38 L27.0309278,38 L27.0309278,13.7113402 L21.5463918,13.7113402 L21.5463918,13.7113402 Z M7.83505155,8.03092784 C7.83505155,4.89870928 10.3832454,2.35051546 13.5154639,2.35051546 C16.6476825,2.35051546 19.1958763,4.89870928 19.1958763,8.03092784 L19.1958763,13.7113402 L7.83505155,13.7113402 L7.83505155,8.03092784 L7.83505155,8.03092784 Z M24.6804124,35.6494845 L2.35051546,35.6494845 L2.35051546,16.0618557 L24.6804124,16.0618557 L24.6804124,35.6494845 L24.6804124,35.6494845 Z" id="Shape"></path>
                                    <path d="M12.3402062,26.4861567 L12.3402062,30.6832371 L14.6907216,30.6832371 L14.6907216,26.4860784 C15.6163546,26.0451216 16.257732,25.1006845 16.257732,24.0089485 C16.257732,22.4968619 15.0275505,21.2666804 13.5154639,21.2666804 C12.0033773,21.2666804 10.7731959,22.4968619 10.7731959,24.0089485 C10.7731959,25.1007629 11.4145732,26.0452784 12.3402062,26.4861567 L12.3402062,26.4861567 Z" id="Shape"></path>
                                </g>
                            </g>
                        </g>
                    </g>
                </g>
            </g>
        </g>
    </g>
</svg>