<?xml version="1.0" encoding="UTF-8" standalone="no"?>
<svg width="35px" height="38px" viewBox="0 0 35 38" version="1.1" xmlns="http://www.w3.org/2000/svg" xmlns:xlink="http://www.w3.org/1999/xlink">
    <!-- Generator: sketchtool 3.8.3 (29802) - http://www.bohemiancoding.com/sketch -->
    <title>D07EF483-CC61-4CCA-AB21-64EB31EF607E</title>
    <desc>Created with sketchtool.</desc>
    <defs></defs>
    <g id="Symbols" stroke="none" stroke-width="1" fill="none" fill-rule="evenodd">
        <g id="Value-Proposition-Bar" transform="translate(-163.000000, -37.000000)" fill="#FFFFFF">
            <g id="Shipping">
                <g>
                    <g id="Group-5" transform="translate(109.000000, 37.000000)">
                        <g id="shipping" transform="translate(54.000000, 0.000000)">
                            <g id="Capa_1">
                                <path d="M34.0676756,20.0367244 L29.8772044,17.6059067 L29.8772044,16.8102711 C29.8772044,16.2809733 29.4482267,15.8519956 28.9189289,15.8519956 C28.4907956,15.8519956 28.1286133,16.1327733 28.0056622,16.52012 L25.8573111,15.2738044 L25.8573111,14.3327556 C25.8573111,13.8034578 25.4283333,13.37448 24.8989511,13.37448 C24.4252178,13.37448 24.0326356,13.7186756 23.9554533,14.1706222 L21.5352756,12.7666489 L21.5352756,5.71528444 C21.5352756,4.22517778 21.1084933,2.81689778 20.3337156,1.74968889 C19.5144356,0.621426667 18.4057644,0 17.2119733,0 C16.0181822,0 14.9095111,0.621342222 14.0902311,1.74968889 C13.3153689,2.81689778 12.8886711,4.22517778 12.8886711,5.71528444 L12.8886711,12.7437644 L10.42872,14.1707911 C10.3515378,13.7188444 9.95904,13.3746489 9.48522222,13.3746489 C8.95592444,13.3746489 8.52694667,13.8036267 8.52694667,14.3329244 L8.52694667,15.2739733 L6.37851111,16.5202889 C6.25556,16.1329422 5.89329333,15.8521644 5.46524444,15.8521644 C4.93594667,15.8521644 4.50696889,16.2811422 4.50696889,16.81044 L4.50696889,17.6060756 L0.316497778,20.0369778 C0.121177778,20.1503022 0.000928888889,20.35888 0.000928888889,20.5846844 L0.000928888889,23.5857556 C0.000928888889,23.7882533 0.0977866667,23.9785911 0.261524444,24.0976578 C0.371217778,24.1774578 0.502022222,24.2190889 0.634346667,24.2190889 C0.699622222,24.2190889 0.765235556,24.20904 0.828906667,24.1886044 L12.8886711,20.2951244 L12.8886711,27.6573289 L12.8886711,29.6607733 C12.8886711,29.8154756 12.8936533,29.9767644 12.9029422,30.1432044 L9.05835556,34.04876 C8.94173778,34.1671511 8.87637778,34.3268356 8.87637778,34.4931067 L8.87637778,36.1393511 C8.87637778,36.4892044 9.15994222,36.7726844 9.50971111,36.7726844 L15.1695156,36.7726844 C15.7398533,37.4694356 16.42056,37.9310933 17.2119733,37.9310933 C18.0033022,37.9310933 18.6840933,37.4694356 19.2544311,36.7726844 L24.8746311,36.7726844 C25.2244,36.7726844 25.5079644,36.4892044 25.5079644,36.1393511 L25.5079644,34.4931067 C25.5079644,34.3268356 25.4426044,34.1674044 25.3259867,34.04876 L21.5189778,30.1812889 C21.5297022,30.0013378 21.5352756,29.8272133 21.5352756,29.6606044 L21.5352756,27.6572444 L21.5352756,20.30796 L33.5553511,24.1886044 C33.6190222,24.2092089 33.6845511,24.2191733 33.7499111,24.2191733 C33.8822356,24.2191733 34.01304,24.1777111 34.1227333,24.0978267 C34.2863867,23.9786756 34.3833289,23.7882533 34.3833289,23.58584 L34.3833289,20.5847689 C34.3832444,20.35888 34.2629956,20.1501333 34.0676756,20.0367244 L34.0676756,20.0367244 Z M12.8488978,18.9766933 L1.26768,22.7157244 L1.26768,20.9494844 L12.8488978,14.2311689 L12.8488978,18.9766933 L12.8488978,18.9766933 L12.8488978,18.9766933 Z M10.1430444,35.50568 L10.1430444,34.7521822 L13.1057778,31.7422444 C13.1127867,31.7793156 13.1192044,31.8161333 13.1265511,31.8532044 L13.1265511,31.8536267 C13.33572,32.9122222 13.7464578,34.3146756 14.35868,35.5055111 L10.1430444,35.50568 L10.1430444,35.50568 L10.1430444,35.50568 Z M17.2119733,36.6640889 C16.2125733,36.6640889 14.9107778,34.3487911 14.3692356,31.6082311 L14.3692356,31.6079778 C14.2293111,30.8994044 14.1553378,30.2260444 14.1553378,29.66052 L14.1553378,27.6570756 L14.1553378,5.71528444 C14.1553378,3.26234222 15.5265467,1.26666667 17.2119733,1.26666667 C18.8973156,1.26666667 20.2686089,3.26234222 20.2686089,5.71528444 L20.2686089,13.1316178 L20.2686089,19.43776 L20.2686089,27.6572444 L20.2686089,29.6606889 C20.2686089,30.2263822 20.19472,30.8997422 20.05488,31.6081467 L20.05488,31.6084 C19.5131689,34.3487911 18.2113733,36.6640889 17.2119733,36.6640889 L17.2119733,36.6640889 Z M24.2411289,34.7521822 L24.2411289,35.50568 L20.0651822,35.50568 C20.6774044,34.3146756 21.0882267,32.9123911 21.29748,31.8537956 L21.29748,31.8533733 C21.3027156,31.8276178 21.3069378,31.8022 21.3118356,31.7764444 L24.2411289,34.7521822 L24.2411289,34.7521822 Z M33.1165778,22.7157244 L21.53536,18.9766933 L21.53536,14.2312533 L33.1165778,20.9495689 L33.1165778,22.7157244 L33.1165778,22.7157244 Z" id="Shape"></path>
                            </g>
                        </g>
                    </g>
                </g>
            </g>
        </g>
    </g>
</svg>