<?xml version="1.0" encoding="UTF-8" standalone="no"?>
<svg width="28px" height="38px" viewBox="0 0 28 38" version="1.1" xmlns="http://www.w3.org/2000/svg" xmlns:xlink="http://www.w3.org/1999/xlink">
    <!-- Generator: sketchtool 3.8.3 (29802) - http://www.bohemiancoding.com/sketch -->
    <title>ABA4481B-606F-469E-B9D4-449D8CA3A473</title>
    <desc>Created with sketchtool.</desc>
    <defs></defs>
    <g id="Symbols" stroke="none" stroke-width="1" fill="none" fill-rule="evenodd">
        <g id="Value-Proposition-Bar" transform="translate(-886.000000, -38.000000)" fill="#FFFFFF">
            <g id="Guarnatee">
                <g transform="translate(720.000000, 0.000000)">
                    <g id="Group-5" transform="translate(124.000000, 38.000000)">
                        <g id="warranty" transform="translate(42.000000, 0.000000)">
                            <g id="Capa_1">
                                <g id="Group">
                                    <path d="M25.6785278,15.4111223 C26.4248708,14.7526915 27.2705772,14.0065372 27.2705772,12.961234 C27.2705772,11.9159309 26.4248708,11.1696755 25.6785278,10.5112447 C25.2562842,10.1387234 24.7776534,9.71647872 24.6754452,9.40307979 C24.5631788,9.05956383 24.7033848,8.41538298 24.8272335,7.847 C25.0339865,6.89710106 25.2683744,5.82026596 24.6724989,5.00599468 C24.0712386,4.18424468 22.9627983,4.07408511 21.9849122,3.97696277 C21.4080356,3.91965957 20.754452,3.8547766 20.4688585,3.648 C20.1904784,3.44657979 19.9302845,2.85404255 19.7007734,2.33123936 C19.3043358,1.42884043 18.8552702,0.406074468 17.8713897,0.0884308511 C17.6897315,0.0298138298 17.4968974,0 17.2980691,0 C16.5466461,0 15.8310875,0.414867021 15.1390997,0.816191489 C14.6261286,1.11352128 14.0448832,1.45056915 13.6671398,1.45056915 C13.2890915,1.45056915 12.7079478,1.11352128 12.1949766,0.816191489 C11.5029889,0.414867021 10.7874302,0 10.0359057,0 C9.83687409,0 9.64404002,0.0298138298 9.4624834,0.0884308511 C8.47880615,0.406175532 8.02974052,1.42894149 7.63350614,2.3311383 C7.40389339,2.85394149 7.14359788,3.44647872 6.86542103,3.64789894 C6.57962428,3.85467553 5.92604075,3.91955851 5.34936733,3.9768617 C4.371278,4.07398404 3.26283772,4.18414362 2.66178065,5.00589362 C2.0659051,5.82026596 2.30019138,6.897 2.50724924,7.84689894 C2.63089469,8.41528191 2.7712023,9.05946277 2.65903749,9.40297872 C2.55662614,9.7162766 2.07819853,10.1385213 1.65595491,10.5110426 C0.909611899,11.1695745 0.0637022965,11.9158298 0.0637022965,12.961133 C0.0637022965,14.0065372 0.909611899,14.7528936 1.65595491,15.4112234 C2.07819853,15.7837447 2.55682934,16.2058883 2.65903749,16.518984 C2.7712023,16.8627021 2.63089469,17.506984 2.50724924,18.075367 C2.30029298,19.025266 2.0659051,20.1021011 2.66167905,20.9163723 C3.26232973,21.7372128 4.36904283,21.8479787 5.34611618,21.945 L1.38793792,34.6333617 C1.29944557,34.9167447 1.38539795,35.2252926 1.6077972,35.4230745 C1.83009484,35.6208564 2.14809833,35.6712872 2.42139846,35.552234 L6.51734437,33.7678511 L8.87849488,37.5453138 C9.01859929,37.7696755 9.2644678,37.9030798 9.5253729,37.9030798 C9.55747805,37.9030798 9.59009119,37.9011596 9.62260272,37.8969149 C9.91845773,37.8592181 10.1649358,37.6531489 10.253225,37.369766 L13.6671398,26.4266755 L17.0808513,37.369766 C17.1693437,37.6531489 17.4158218,37.8592181 17.7116768,37.8969149 C17.7441883,37.9011596 17.7765983,37.9030798 17.8089066,37.9030798 C18.0698117,37.9030798 18.315477,37.7695745 18.4557846,37.5453138 L20.816732,33.7678511 L24.9127795,35.552234 C25.1856732,35.6712872 25.5038799,35.6210585 25.7261775,35.4230745 C25.9485768,35.2252926 26.0345292,34.9166436 25.94624,34.6333617 L21.9880617,21.9453032 C22.9653383,21.8481809 24.0718482,21.7374149 24.6724989,20.9165745 C25.2683744,20.1022021 25.0340881,19.0254681 24.8272335,18.0754681 C24.7033848,17.5070851 24.5630772,16.8628032 24.6754452,16.5191862 C24.7776534,16.2057872 25.2562842,15.7836436 25.6785278,15.4111223 L25.6785278,15.4111223 Z M9.29200101,35.3360585 L7.46322695,32.4100585 C7.26317939,32.0899894 6.85719155,31.9648723 6.51033407,32.1159628 L3.33771586,33.4981117 L6.84327254,22.2604202 C6.85038444,22.2652713 6.85830913,22.2697181 6.86531943,22.2746702 C7.14349629,22.4760904 7.40389339,23.0685266 7.63340454,23.5913298 C8.02963892,24.4936277 8.47890775,25.5163936 9.46258499,25.8339362 C9.64414162,25.8926543 9.83728048,25.922367 10.0361089,25.922367 C10.7875318,25.922367 11.5030905,25.5073989 12.1950782,25.1063777 C12.3095798,25.0399787 12.4274341,24.9717606 12.5458981,24.9055638 L9.29200101,35.3360585 L9.29200101,35.3360585 Z M20.8236407,32.1158617 C20.4769864,31.9648723 20.0709985,32.0901915 19.870951,32.4099574 L18.0419737,35.3359574 L14.7882799,24.9052606 C14.9065406,24.9713564 15.0245981,25.0396755 15.1390997,25.1060745 C15.8310875,25.5073989 16.5466461,25.9221649 17.2980691,25.9221649 C17.4971006,25.9221649 17.6899347,25.8924521 17.8715929,25.8338351 C18.8552702,25.5160904 19.304539,24.4933245 19.7007734,23.5911277 C19.9303861,23.0683245 20.1906816,22.4758883 20.4688585,22.2744681 C20.475564,22.269516 20.4835903,22.2650691 20.4909054,22.2603191 L23.9964621,33.4979096 L20.8236407,32.1158617 L20.8236407,32.1158617 Z M23.225837,16.0509574 C22.986674,16.7836702 23.1650811,17.6033989 23.3375954,18.3961436 C23.4699783,19.0034362 23.6344664,19.7591915 23.4404131,20.024484 C23.240772,20.2972553 22.4603934,20.3747713 21.8335303,20.4370266 C21.026533,20.5171702 20.1919008,20.5999415 19.5721496,21.048766 C18.9596119,21.492133 18.6263686,22.2507181 18.3043012,22.9841383 C18.0496952,23.5635372 17.7330125,24.2847287 17.4007852,24.3920585 C17.3710168,24.4016596 17.3374893,24.4063085 17.2979675,24.4063085 C16.9582219,24.4063085 16.3994298,24.0822979 15.906372,23.7964894 C15.1935565,23.3832394 14.4565606,22.9559415 13.6670382,22.9559415 C12.8773126,22.9559415 12.1403166,23.3833404 11.4275011,23.7964894 C10.9345449,24.0822979 10.3757528,24.4063085 10.0361089,24.4063085 C9.99658702,24.4063085 9.9630595,24.4016596 9.93329112,24.3919574 C9.60106383,24.2847287 9.28438112,23.5636383 9.02977513,22.9841383 C8.7077077,22.250617 8.37456602,21.4920319 7.76192671,21.048766 C7.14197231,20.5999415 6.30744174,20.5170691 5.50013959,20.4369255 C4.87327648,20.3746702 4.09320275,20.2971543 3.89356158,20.024484 C3.69950833,19.7591915 3.8639964,19.0035372 3.99617612,18.3963457 C4.16879207,17.6036011 4.34740234,16.7838723 4.10813773,16.0508564 C3.8779154,15.3454309 3.26222813,14.8023138 2.66686058,14.2771862 C2.16079815,13.8306862 1.58737589,13.3247606 1.58737589,12.961234 C1.58737589,12.5977074 2.16079815,12.0916809 2.66686058,11.6452819 C3.26212653,11.1200532 3.8779154,10.5768351 4.10834093,9.87120745 C4.34740234,9.13839362 4.16889367,8.31876596 3.99637932,7.52602128 C3.8639964,6.91872872 3.69950833,6.16317553 3.89356158,5.89788298 C4.09320275,5.6251117 4.87347968,5.54759574 5.50044439,5.48534043 C6.30744174,5.40519681 7.14187071,5.32242553 7.76182512,4.87370213 C8.37436283,4.43013298 8.7076061,3.67154787 9.02967353,2.9380266 C9.28427952,2.35862766 9.60096223,1.63753723 9.93298632,1.53020745 C9.9627547,1.52070745 9.99648542,1.51595745 10.0359057,1.51595745 C10.3756512,1.51595745 10.9344433,1.84006915 11.4275011,2.12587766 C12.1403166,2.53922872 12.8773126,2.9665266 13.6670382,2.9665266 C14.4565606,2.9665266 15.1935565,2.53912766 15.906372,2.12587766 C16.3995314,1.84006915 16.9583235,1.51595745 17.2980691,1.51595745 C17.3375909,1.51595745 17.3711184,1.52070745 17.4006836,1.53030851 C17.7329109,1.63753723 18.0495936,2.35862766 18.3041996,2.93822872 C18.6264702,3.67185106 18.9596119,4.43043617 19.5721496,4.87380319 C20.1919008,5.32242553 21.0264314,5.40529787 21.8335303,5.48544149 C22.4603934,5.54769681 23.2408736,5.62521277 23.4404131,5.89798404 C23.6344664,6.1632766 23.4699783,6.91903191 23.3375954,7.52612234 C23.1651827,8.31886702 22.9867756,9.13859574 23.225837,9.87120745 C23.4560593,10.5768351 24.0717466,11.1200532 24.6673173,11.645484 C25.1731766,12.0917819 25.7465988,12.5978085 25.7465988,12.9613351 C25.7465988,13.3248617 25.173075,13.8307872 24.6673173,14.2770851 C24.0718482,14.8022128 23.4560593,15.3454309 23.225837,16.0509574 L23.225837,16.0509574 Z" id="Shape"></path>
                                    <path d="M13.6670382,4.37040426 C8.9050121,4.37040426 5.03075425,8.22427128 5.03075425,12.961234 C5.03075425,17.6981968 8.9050121,21.5520638 13.6670382,21.5520638 C18.4290642,21.5520638 22.3033221,17.6981968 22.3033221,12.961234 C22.3033221,8.22427128 18.4291658,4.37040426 13.6670382,4.37040426 L13.6670382,4.37040426 Z M13.6670382,20.0361064 C9.74513059,20.0361064 6.55473264,16.8623989 6.55473264,12.961234 C6.55473264,9.06006915 9.74513059,5.8863617 13.6670382,5.8863617 C17.5887425,5.8863617 20.7793437,9.06006915 20.7793437,12.961234 C20.7793437,16.8623989 17.5887425,20.0361064 13.6670382,20.0361064 L13.6670382,20.0361064 Z" id="Shape"></path>
                                    <path d="M13.6670382,6.99220213 C10.3583795,6.99220213 7.66632247,9.6698883 7.66632247,12.9613351 C7.66632247,13.3800426 8.00738883,13.7193138 8.42831166,13.7193138 C8.84923449,13.7193138 9.19030086,13.3800426 9.19030086,12.9613351 C9.19030086,10.5058883 11.198498,8.50815957 13.6670382,8.50815957 C14.087961,8.50815957 14.4290274,8.1688883 14.4290274,7.75018085 C14.4290274,7.3314734 14.087961,6.99220213 13.6670382,6.99220213 L13.6670382,6.99220213 Z" id="Shape"></path>
                                </g>
                            </g>
                        </g>
                    </g>
                </g>
            </g>
        </g>
    </g>
</svg>